<svg xmlns="http://www.w3.org/2000/svg" viewBox="0 0 895 170" width="895" height="170">
<rect x="60" y="57.0" width="151" height="56" rx="10" fill="#ffffff" stroke="#111111" stroke-width="2.4"/>
<g transform="translate(135.5,93)"><text x="0" y="0" text-anchor="middle" font-family="Pretendard, 'NanumSquareRound', sans-serif" font-size="23" font-weight="700" fill="#111111">3<tspan font-family="KaTeX_Math, 'Times New Roman', serif" font-style="italic" font-weight="400" font-size="26">x</tspan>+4=<tspan font-family="KaTeX_Math, 'Times New Roman', serif" font-style="italic" font-weight="400" font-size="26">x</tspan>+16</text></g>
<line x1="217" y1="85" x2="307" y2="85" stroke="#111111" stroke-width="2.2"/>
<polygon points="316,85 303,78 303,92" fill="#111111"/>
<g transform="translate(266.5,69)"><text x="0" y="0" text-anchor="middle" font-family="Pretendard, 'NanumSquareRound', sans-serif" font-size="19" font-weight="700" fill="#111111">양변 −<tspan font-family="KaTeX_Math, 'Times New Roman', serif" font-style="italic" font-weight="400" font-size="22">x</tspan></text></g>
<rect x="322" y="57.0" width="124" height="56" rx="10" fill="#e4e4e4" stroke="#111111" stroke-width="2.4"/>
<g transform="translate(384.0,93)"><text x="0" y="0" text-anchor="middle" font-family="Pretendard, 'NanumSquareRound', sans-serif" font-size="23" font-weight="700" fill="#111111">2<tspan font-family="KaTeX_Math, 'Times New Roman', serif" font-style="italic" font-weight="400" font-size="26">x</tspan>+4=16</text></g>
<line x1="452" y1="85" x2="542" y2="85" stroke="#111111" stroke-width="2.2"/>
<polygon points="551,85 538,78 538,92" fill="#111111"/>
<g transform="translate(501.5,69)"><text x="0" y="0" text-anchor="middle" font-family="Pretendard, 'NanumSquareRound', sans-serif" font-size="19" font-weight="700" fill="#111111">양변 −4</text></g>
<rect x="557" y="57.0" width="97" height="56" rx="10" fill="#e4e4e4" stroke="#111111" stroke-width="2.4"/>
<g transform="translate(605.5,93)"><text x="0" y="0" text-anchor="middle" font-family="Pretendard, 'NanumSquareRound', sans-serif" font-size="23" font-weight="700" fill="#111111">2<tspan font-family="KaTeX_Math, 'Times New Roman', serif" font-style="italic" font-weight="400" font-size="26">x</tspan>=12</text></g>
<line x1="660" y1="85" x2="750" y2="85" stroke="#111111" stroke-width="2.2"/>
<polygon points="759,85 746,78 746,92" fill="#111111"/>
<g transform="translate(709.5,69)"><text x="0" y="0" text-anchor="middle" font-family="Pretendard, 'NanumSquareRound', sans-serif" font-size="19" font-weight="700" fill="#111111">양변 ÷2</text></g>
<rect x="765" y="57.0" width="70" height="56" rx="10" fill="#e4e4e4" stroke="#111111" stroke-width="2.4"/>
<g transform="translate(800.0,93)"><text x="0" y="0" text-anchor="middle" font-family="Pretendard, 'NanumSquareRound', sans-serif" font-size="23" font-weight="700" fill="#c62828"><tspan font-family="KaTeX_Math, 'Times New Roman', serif" font-style="italic" font-weight="400" font-size="26">x</tspan>=6</text></g>
</svg>
