<svg xmlns="http://www.w3.org/2000/svg" viewBox="0 0 620 396" width="620" height="396">
<rect x="24" y="266" width="30" height="30" fill="#111111" stroke="#111111" stroke-width="1.2"/>
<rect x="24" y="236" width="30" height="30" fill="none" stroke="#111111" stroke-width="1.2"/>
<rect x="24" y="206" width="30" height="30" fill="#111111" stroke="#111111" stroke-width="1.2"/>
<rect x="24" y="176" width="30" height="30" fill="none" stroke="#111111" stroke-width="1.2"/>
<rect x="24" y="146" width="30" height="30" fill="#111111" stroke="#111111" stroke-width="1.2"/>
<rect x="24" y="116" width="30" height="30" fill="none" stroke="#111111" stroke-width="1.2"/>
<rect x="24" y="86" width="30" height="30" fill="#111111" stroke="#111111" stroke-width="1.2"/>
<rect x="24" y="56" width="30" height="30" fill="none" stroke="#111111" stroke-width="1.2"/>
<rect x="54" y="266" width="30" height="30" fill="none" stroke="#111111" stroke-width="1.2"/>
<rect x="54" y="236" width="30" height="30" fill="#111111" stroke="#111111" stroke-width="1.2"/>
<rect x="54" y="206" width="30" height="30" fill="none" stroke="#111111" stroke-width="1.2"/>
<rect x="54" y="176" width="30" height="30" fill="#111111" stroke="#111111" stroke-width="1.2"/>
<rect x="54" y="146" width="30" height="30" fill="none" stroke="#111111" stroke-width="1.2"/>
<rect x="54" y="116" width="30" height="30" fill="#111111" stroke="#111111" stroke-width="1.2"/>
<rect x="54" y="86" width="30" height="30" fill="none" stroke="#111111" stroke-width="1.2"/>
<rect x="54" y="56" width="30" height="30" fill="#111111" stroke="#111111" stroke-width="1.2"/>
<rect x="84" y="266" width="30" height="30" fill="#111111" stroke="#111111" stroke-width="1.2"/>
<rect x="84" y="236" width="30" height="30" fill="none" stroke="#111111" stroke-width="1.2"/>
<rect x="84" y="206" width="30" height="30" fill="#111111" stroke="#111111" stroke-width="1.2"/>
<rect x="84" y="176" width="30" height="30" fill="none" stroke="#111111" stroke-width="1.2"/>
<rect x="84" y="116" width="30" height="30" fill="none" stroke="#111111" stroke-width="1.2"/>
<rect x="84" y="86" width="30" height="30" fill="#111111" stroke="#111111" stroke-width="1.2"/>
<rect x="84" y="56" width="30" height="30" fill="none" stroke="#111111" stroke-width="1.2"/>
<rect x="114" y="266" width="30" height="30" fill="none" stroke="#111111" stroke-width="1.2"/>
<rect x="114" y="236" width="30" height="30" fill="#111111" stroke="#111111" stroke-width="1.2"/>
<rect x="114" y="206" width="30" height="30" fill="none" stroke="#111111" stroke-width="1.2"/>
<rect x="114" y="176" width="30" height="30" fill="#111111" stroke="#111111" stroke-width="1.2"/>
<rect x="114" y="146" width="30" height="30" fill="none" stroke="#111111" stroke-width="1.2"/>
<rect x="114" y="116" width="30" height="30" fill="#111111" stroke="#111111" stroke-width="1.2"/>
<rect x="114" y="86" width="30" height="30" fill="none" stroke="#111111" stroke-width="1.2"/>
<rect x="114" y="56" width="30" height="30" fill="#111111" stroke="#111111" stroke-width="1.2"/>
<rect x="144" y="266" width="30" height="30" fill="#111111" stroke="#111111" stroke-width="1.2"/>
<rect x="144" y="236" width="30" height="30" fill="none" stroke="#111111" stroke-width="1.2"/>
<rect x="144" y="206" width="30" height="30" fill="#111111" stroke="#111111" stroke-width="1.2"/>
<rect x="144" y="176" width="30" height="30" fill="none" stroke="#111111" stroke-width="1.2"/>
<rect x="144" y="146" width="30" height="30" fill="#111111" stroke="#111111" stroke-width="1.2"/>
<rect x="144" y="116" width="30" height="30" fill="none" stroke="#111111" stroke-width="1.2"/>
<rect x="144" y="86" width="30" height="30" fill="#111111" stroke="#111111" stroke-width="1.2"/>
<rect x="144" y="56" width="30" height="30" fill="none" stroke="#111111" stroke-width="1.2"/>
<rect x="174" y="266" width="30" height="30" fill="none" stroke="#111111" stroke-width="1.2"/>
<rect x="174" y="236" width="30" height="30" fill="#111111" stroke="#111111" stroke-width="1.2"/>
<rect x="174" y="176" width="30" height="30" fill="#111111" stroke="#111111" stroke-width="1.2"/>
<rect x="174" y="146" width="30" height="30" fill="none" stroke="#111111" stroke-width="1.2"/>
<rect x="174" y="116" width="30" height="30" fill="#111111" stroke="#111111" stroke-width="1.2"/>
<rect x="174" y="86" width="30" height="30" fill="none" stroke="#111111" stroke-width="1.2"/>
<rect x="174" y="56" width="30" height="30" fill="#111111" stroke="#111111" stroke-width="1.2"/>
<rect x="204" y="266" width="30" height="30" fill="#111111" stroke="#111111" stroke-width="1.2"/>
<rect x="204" y="236" width="30" height="30" fill="none" stroke="#111111" stroke-width="1.2"/>
<rect x="204" y="206" width="30" height="30" fill="#111111" stroke="#111111" stroke-width="1.2"/>
<rect x="204" y="176" width="30" height="30" fill="none" stroke="#111111" stroke-width="1.2"/>
<rect x="204" y="146" width="30" height="30" fill="#111111" stroke="#111111" stroke-width="1.2"/>
<rect x="204" y="116" width="30" height="30" fill="none" stroke="#111111" stroke-width="1.2"/>
<rect x="204" y="86" width="30" height="30" fill="#111111" stroke="#111111" stroke-width="1.2"/>
<rect x="204" y="56" width="30" height="30" fill="none" stroke="#111111" stroke-width="1.2"/>
<rect x="234" y="266" width="30" height="30" fill="none" stroke="#111111" stroke-width="1.2"/>
<rect x="234" y="236" width="30" height="30" fill="#111111" stroke="#111111" stroke-width="1.2"/>
<rect x="234" y="206" width="30" height="30" fill="none" stroke="#111111" stroke-width="1.2"/>
<rect x="234" y="176" width="30" height="30" fill="#111111" stroke="#111111" stroke-width="1.2"/>
<rect x="234" y="146" width="30" height="30" fill="none" stroke="#111111" stroke-width="1.2"/>
<rect x="234" y="116" width="30" height="30" fill="#111111" stroke="#111111" stroke-width="1.2"/>
<rect x="234" y="86" width="30" height="30" fill="none" stroke="#111111" stroke-width="1.2"/>
<rect x="234" y="56" width="30" height="30" fill="#111111" stroke="#111111" stroke-width="1.2"/>
<rect x="24" y="56" width="240" height="240" fill="none" stroke="#111111" stroke-width="2.6"/>
<rect x="87.0" y="149.0" width="24.0" height="24.0" fill="#8a8a8a" stroke="#111111" stroke-width="1.8" stroke-dasharray="4.5 3.5"/>
<line x1="92.4" y1="154.4" x2="105.6" y2="167.6" stroke="#111111" stroke-width="1.8"/>
<line x1="92.4" y1="167.6" x2="105.6" y2="154.4" stroke="#111111" stroke-width="1.8"/>
<rect x="177.0" y="209.0" width="24.0" height="24.0" fill="none" stroke="#111111" stroke-width="1.8" stroke-dasharray="4.5 3.5"/>
<line x1="182.4" y1="214.4" x2="195.6" y2="227.6" stroke="#111111" stroke-width="1.8"/>
<line x1="182.4" y1="227.6" x2="195.6" y2="214.4" stroke="#111111" stroke-width="1.8"/>
<text x="144" y="330" text-anchor="middle" font-family="Pretendard, 'NanumSquareRound', sans-serif" font-size="21" fill="#111111"><tspan x="144" dy="0">검 한 칸 · 흰 한 칸을 떼어냈다</tspan><tspan x="144" dy="26">— 도미노 31개로 덮일까?</tspan></text>
<rect x="330" y="266" width="30" height="30" fill="#111111" stroke="#111111" stroke-width="1.2"/>
<rect x="330" y="236" width="30" height="30" fill="none" stroke="#111111" stroke-width="1.2"/>
<rect x="330" y="206" width="30" height="30" fill="#111111" stroke="#111111" stroke-width="1.2"/>
<rect x="330" y="176" width="30" height="30" fill="none" stroke="#111111" stroke-width="1.2"/>
<rect x="330" y="146" width="30" height="30" fill="#111111" stroke="#111111" stroke-width="1.2"/>
<rect x="330" y="116" width="30" height="30" fill="none" stroke="#111111" stroke-width="1.2"/>
<rect x="330" y="86" width="30" height="30" fill="#111111" stroke="#111111" stroke-width="1.2"/>
<rect x="330" y="56" width="30" height="30" fill="none" stroke="#111111" stroke-width="1.2"/>
<rect x="360" y="266" width="30" height="30" fill="none" stroke="#111111" stroke-width="1.2"/>
<rect x="360" y="236" width="30" height="30" fill="#111111" stroke="#111111" stroke-width="1.2"/>
<rect x="360" y="206" width="30" height="30" fill="none" stroke="#111111" stroke-width="1.2"/>
<rect x="360" y="176" width="30" height="30" fill="#111111" stroke="#111111" stroke-width="1.2"/>
<rect x="360" y="116" width="30" height="30" fill="#111111" stroke="#111111" stroke-width="1.2"/>
<rect x="360" y="86" width="30" height="30" fill="none" stroke="#111111" stroke-width="1.2"/>
<rect x="360" y="56" width="30" height="30" fill="#111111" stroke="#111111" stroke-width="1.2"/>
<rect x="390" y="266" width="30" height="30" fill="#111111" stroke="#111111" stroke-width="1.2"/>
<rect x="390" y="236" width="30" height="30" fill="none" stroke="#111111" stroke-width="1.2"/>
<rect x="390" y="206" width="30" height="30" fill="#111111" stroke="#111111" stroke-width="1.2"/>
<rect x="390" y="176" width="30" height="30" fill="none" stroke="#111111" stroke-width="1.2"/>
<rect x="390" y="146" width="30" height="30" fill="#111111" stroke="#111111" stroke-width="1.2"/>
<rect x="390" y="116" width="30" height="30" fill="none" stroke="#111111" stroke-width="1.2"/>
<rect x="390" y="86" width="30" height="30" fill="#111111" stroke="#111111" stroke-width="1.2"/>
<rect x="390" y="56" width="30" height="30" fill="none" stroke="#111111" stroke-width="1.2"/>
<rect x="420" y="266" width="30" height="30" fill="none" stroke="#111111" stroke-width="1.2"/>
<rect x="420" y="236" width="30" height="30" fill="#111111" stroke="#111111" stroke-width="1.2"/>
<rect x="420" y="206" width="30" height="30" fill="none" stroke="#111111" stroke-width="1.2"/>
<rect x="420" y="176" width="30" height="30" fill="#111111" stroke="#111111" stroke-width="1.2"/>
<rect x="420" y="146" width="30" height="30" fill="none" stroke="#111111" stroke-width="1.2"/>
<rect x="420" y="116" width="30" height="30" fill="#111111" stroke="#111111" stroke-width="1.2"/>
<rect x="420" y="86" width="30" height="30" fill="none" stroke="#111111" stroke-width="1.2"/>
<rect x="420" y="56" width="30" height="30" fill="#111111" stroke="#111111" stroke-width="1.2"/>
<rect x="450" y="266" width="30" height="30" fill="#111111" stroke="#111111" stroke-width="1.2"/>
<rect x="450" y="236" width="30" height="30" fill="none" stroke="#111111" stroke-width="1.2"/>
<rect x="450" y="206" width="30" height="30" fill="#111111" stroke="#111111" stroke-width="1.2"/>
<rect x="450" y="176" width="30" height="30" fill="none" stroke="#111111" stroke-width="1.2"/>
<rect x="450" y="146" width="30" height="30" fill="#111111" stroke="#111111" stroke-width="1.2"/>
<rect x="450" y="116" width="30" height="30" fill="none" stroke="#111111" stroke-width="1.2"/>
<rect x="450" y="86" width="30" height="30" fill="#111111" stroke="#111111" stroke-width="1.2"/>
<rect x="450" y="56" width="30" height="30" fill="none" stroke="#111111" stroke-width="1.2"/>
<rect x="480" y="266" width="30" height="30" fill="none" stroke="#111111" stroke-width="1.2"/>
<rect x="480" y="236" width="30" height="30" fill="#111111" stroke="#111111" stroke-width="1.2"/>
<rect x="480" y="206" width="30" height="30" fill="none" stroke="#111111" stroke-width="1.2"/>
<rect x="480" y="176" width="30" height="30" fill="#111111" stroke="#111111" stroke-width="1.2"/>
<rect x="480" y="146" width="30" height="30" fill="none" stroke="#111111" stroke-width="1.2"/>
<rect x="480" y="116" width="30" height="30" fill="#111111" stroke="#111111" stroke-width="1.2"/>
<rect x="480" y="86" width="30" height="30" fill="none" stroke="#111111" stroke-width="1.2"/>
<rect x="480" y="56" width="30" height="30" fill="#111111" stroke="#111111" stroke-width="1.2"/>
<rect x="510" y="266" width="30" height="30" fill="#111111" stroke="#111111" stroke-width="1.2"/>
<rect x="510" y="236" width="30" height="30" fill="none" stroke="#111111" stroke-width="1.2"/>
<rect x="510" y="176" width="30" height="30" fill="none" stroke="#111111" stroke-width="1.2"/>
<rect x="510" y="146" width="30" height="30" fill="#111111" stroke="#111111" stroke-width="1.2"/>
<rect x="510" y="116" width="30" height="30" fill="none" stroke="#111111" stroke-width="1.2"/>
<rect x="510" y="86" width="30" height="30" fill="#111111" stroke="#111111" stroke-width="1.2"/>
<rect x="510" y="56" width="30" height="30" fill="none" stroke="#111111" stroke-width="1.2"/>
<rect x="540" y="266" width="30" height="30" fill="none" stroke="#111111" stroke-width="1.2"/>
<rect x="540" y="236" width="30" height="30" fill="#111111" stroke="#111111" stroke-width="1.2"/>
<rect x="540" y="206" width="30" height="30" fill="none" stroke="#111111" stroke-width="1.2"/>
<rect x="540" y="176" width="30" height="30" fill="#111111" stroke="#111111" stroke-width="1.2"/>
<rect x="540" y="146" width="30" height="30" fill="none" stroke="#111111" stroke-width="1.2"/>
<rect x="540" y="116" width="30" height="30" fill="#111111" stroke="#111111" stroke-width="1.2"/>
<rect x="540" y="86" width="30" height="30" fill="none" stroke="#111111" stroke-width="1.2"/>
<rect x="540" y="56" width="30" height="30" fill="#111111" stroke="#111111" stroke-width="1.2"/>
<rect x="330" y="56" width="240" height="240" fill="none" stroke="#111111" stroke-width="2.6"/>
<rect x="513.0" y="209.0" width="24.0" height="24.0" fill="#8a8a8a" stroke="#111111" stroke-width="1.8" stroke-dasharray="4.5 3.5"/>
<line x1="518.4" y1="214.4" x2="531.6" y2="227.6" stroke="#111111" stroke-width="1.8"/>
<line x1="518.4" y1="227.6" x2="531.6" y2="214.4" stroke="#111111" stroke-width="1.8"/>
<rect x="363.0" y="149.0" width="24.0" height="24.0" fill="none" stroke="#111111" stroke-width="1.8" stroke-dasharray="4.5 3.5"/>
<line x1="368.4" y1="154.4" x2="381.6" y2="167.6" stroke="#111111" stroke-width="1.8"/>
<line x1="368.4" y1="167.6" x2="381.6" y2="154.4" stroke="#111111" stroke-width="1.8"/>
<text x="450" y="330" text-anchor="middle" font-family="Pretendard, 'NanumSquareRound', sans-serif" font-size="21" fill="#111111"><tspan x="450" dy="0">자리를 바꿔 떼어내도?</tspan><tspan x="450" dy="26">— ‘항상’이라고 말할 수 있을까</tspan></text>
</svg>
