<svg xmlns="http://www.w3.org/2000/svg" viewBox="0 0 780 396" width="780" height="396">
<rect x="110" y="120" width="170" height="102" rx="5" fill="#e6e6e6" stroke="#111111" stroke-width="2.8"/>
<line x1="144" y1="120" x2="144" y2="222" stroke="#111111" stroke-width="1.3"/>
<line x1="178" y1="120" x2="178" y2="222" stroke="#111111" stroke-width="1.3"/>
<line x1="212" y1="120" x2="212" y2="222" stroke="#111111" stroke-width="1.3"/>
<line x1="246" y1="120" x2="246" y2="222" stroke="#111111" stroke-width="1.3"/>
<line x1="110" y1="154" x2="280" y2="154" stroke="#111111" stroke-width="1.3"/>
<line x1="110" y1="188" x2="280" y2="188" stroke="#111111" stroke-width="1.3"/>
<rect x="116.12" y="126.12" width="21.759999999999998" height="21.759999999999998" rx="3" fill="none" stroke="#111111" stroke-width="0.9" opacity="0.55"/>
<rect x="116.12" y="160.12" width="21.759999999999998" height="21.759999999999998" rx="3" fill="none" stroke="#111111" stroke-width="0.9" opacity="0.55"/>
<rect x="116.12" y="194.12" width="21.759999999999998" height="21.759999999999998" rx="3" fill="none" stroke="#111111" stroke-width="0.9" opacity="0.55"/>
<rect x="150.12" y="126.12" width="21.759999999999998" height="21.759999999999998" rx="3" fill="none" stroke="#111111" stroke-width="0.9" opacity="0.55"/>
<rect x="150.12" y="160.12" width="21.759999999999998" height="21.759999999999998" rx="3" fill="none" stroke="#111111" stroke-width="0.9" opacity="0.55"/>
<rect x="150.12" y="194.12" width="21.759999999999998" height="21.759999999999998" rx="3" fill="none" stroke="#111111" stroke-width="0.9" opacity="0.55"/>
<rect x="184.12" y="126.12" width="21.759999999999998" height="21.759999999999998" rx="3" fill="none" stroke="#111111" stroke-width="0.9" opacity="0.55"/>
<rect x="184.12" y="160.12" width="21.759999999999998" height="21.759999999999998" rx="3" fill="none" stroke="#111111" stroke-width="0.9" opacity="0.55"/>
<rect x="184.12" y="194.12" width="21.759999999999998" height="21.759999999999998" rx="3" fill="none" stroke="#111111" stroke-width="0.9" opacity="0.55"/>
<rect x="218.12" y="126.12" width="21.759999999999998" height="21.759999999999998" rx="3" fill="none" stroke="#111111" stroke-width="0.9" opacity="0.55"/>
<rect x="218.12" y="160.12" width="21.759999999999998" height="21.759999999999998" rx="3" fill="none" stroke="#111111" stroke-width="0.9" opacity="0.55"/>
<rect x="218.12" y="194.12" width="21.759999999999998" height="21.759999999999998" rx="3" fill="none" stroke="#111111" stroke-width="0.9" opacity="0.55"/>
<rect x="252.12" y="126.12" width="21.759999999999998" height="21.759999999999998" rx="3" fill="none" stroke="#111111" stroke-width="0.9" opacity="0.55"/>
<rect x="252.12" y="160.12" width="21.759999999999998" height="21.759999999999998" rx="3" fill="none" stroke="#111111" stroke-width="0.9" opacity="0.55"/>
<rect x="252.12" y="194.12" width="21.759999999999998" height="21.759999999999998" rx="3" fill="none" stroke="#111111" stroke-width="0.9" opacity="0.55"/>
<line x1="110" y1="244" x2="280" y2="244" stroke="#111111" stroke-width="2"/>
<polygon points="110,244 119,239 119,249" fill="#111111"/>
<polygon points="280,244 271,239 271,249" fill="#111111"/>
<text x="195.0" y="272" text-anchor="middle" font-family="Pretendard, 'NanumSquareRound', sans-serif" font-size="20" fill="#111111">가로 n조각</text>
<line x1="88" y1="120" x2="88" y2="222" stroke="#111111" stroke-width="2"/>
<polygon points="88,120 83,129 93,129" fill="#111111"/>
<polygon points="88,222 83,213 93,213" fill="#111111"/>
<text x="88" y="106" text-anchor="middle" font-family="Pretendard, 'NanumSquareRound', sans-serif" font-size="20" fill="#111111">세로 m조각</text>
<text x="195.0" y="330" text-anchor="middle" font-family="Pretendard, 'NanumSquareRound', sans-serif" font-size="21" fill="#111111"><tspan x="195.0" dy="0">m×n 판초콜릿이라면 몇 번?</tspan><tspan x="195.0" dy="26">‘방법’은 답에 나타날까?</tspan></text>
<circle cx="520" cy="84" r="24" fill="#ffffff" stroke="#111111" stroke-width="2.4"/>
<text x="520" y="92.28" text-anchor="middle" font-family="Pretendard, 'NanumSquareRound', sans-serif" font-size="23" fill="#111111">앞</text>
<circle cx="584" cy="84" r="24" fill="#ffffff" stroke="#111111" stroke-width="2.4"/>
<text x="584" y="92.28" text-anchor="middle" font-family="Pretendard, 'NanumSquareRound', sans-serif" font-size="23" fill="#111111">앞</text>
<circle cx="648" cy="84" r="24" fill="#ffffff" stroke="#111111" stroke-width="2.4"/>
<text x="648" y="92.28" text-anchor="middle" font-family="Pretendard, 'NanumSquareRound', sans-serif" font-size="23" fill="#111111">앞</text>
<circle cx="520" cy="148" r="24" fill="#ffffff" stroke="#111111" stroke-width="2.4"/>
<text x="520" y="156.28" text-anchor="middle" font-family="Pretendard, 'NanumSquareRound', sans-serif" font-size="23" fill="#111111">앞</text>
<circle cx="584" cy="148" r="24" fill="#ffffff" stroke="#111111" stroke-width="2.4"/>
<text x="584" y="156.28" text-anchor="middle" font-family="Pretendard, 'NanumSquareRound', sans-serif" font-size="23" fill="#111111">앞</text>
<circle cx="648" cy="148" r="24" fill="#ffffff" stroke="#111111" stroke-width="2.4"/>
<text x="648" y="156.28" text-anchor="middle" font-family="Pretendard, 'NanumSquareRound', sans-serif" font-size="23" fill="#111111">앞</text>
<circle cx="520" cy="212" r="24" fill="#ffffff" stroke="#111111" stroke-width="2.4"/>
<text x="520" y="220.28" text-anchor="middle" font-family="Pretendard, 'NanumSquareRound', sans-serif" font-size="23" fill="#111111">앞</text>
<circle cx="584" cy="212" r="24" fill="#ffffff" stroke="#111111" stroke-width="2.4"/>
<text x="584" y="220.28" text-anchor="middle" font-family="Pretendard, 'NanumSquareRound', sans-serif" font-size="23" fill="#111111">앞</text>
<circle cx="648" cy="212" r="24" fill="#ffffff" stroke="#111111" stroke-width="2.4"/>
<text x="648" y="220.28" text-anchor="middle" font-family="Pretendard, 'NanumSquareRound', sans-serif" font-size="23" fill="#111111">앞</text>
<rect x="486" y="50" width="196" height="66" rx="33" fill="none" stroke="#111111" stroke-width="2.4" stroke-dasharray="7 5"/>
<text x="584" y="36" text-anchor="middle" font-family="Pretendard, 'NanumSquareRound', sans-serif" font-size="21" fill="#111111">한 번에 꼭 3개씩!</text>
<text x="584" y="330" text-anchor="middle" font-family="Pretendard, 'NanumSquareRound', sans-serif" font-size="21" fill="#111111"><tspan x="584" dy="0">앞면 9개, ‘정확히 3개’씩 뒤집기</tspan><tspan x="584" dy="26">— 모두 뒷면 가능?</tspan></text>
</svg>
