<svg xmlns="http://www.w3.org/2000/svg" viewBox="0 0 700 396" width="700" height="396">
<rect x="40" y="263" width="33" height="33" fill="#111111" stroke="#111111" stroke-width="1.2"/>
<rect x="40" y="230" width="33" height="33" fill="none" stroke="#111111" stroke-width="1.2"/>
<rect x="40" y="197" width="33" height="33" fill="#111111" stroke="#111111" stroke-width="1.2"/>
<rect x="40" y="164" width="33" height="33" fill="none" stroke="#111111" stroke-width="1.2"/>
<rect x="40" y="131" width="33" height="33" fill="#111111" stroke="#111111" stroke-width="1.2"/>
<rect x="40" y="98" width="33" height="33" fill="none" stroke="#111111" stroke-width="1.2"/>
<rect x="40" y="65" width="33" height="33" fill="#111111" stroke="#111111" stroke-width="1.2"/>
<rect x="40" y="32" width="33" height="33" fill="none" stroke="#111111" stroke-width="1.2"/>
<rect x="73" y="263" width="33" height="33" fill="none" stroke="#111111" stroke-width="1.2"/>
<rect x="73" y="230" width="33" height="33" fill="#111111" stroke="#111111" stroke-width="1.2"/>
<rect x="73" y="197" width="33" height="33" fill="none" stroke="#111111" stroke-width="1.2"/>
<rect x="73" y="164" width="33" height="33" fill="#111111" stroke="#111111" stroke-width="1.2"/>
<rect x="73" y="131" width="33" height="33" fill="none" stroke="#111111" stroke-width="1.2"/>
<rect x="73" y="98" width="33" height="33" fill="#111111" stroke="#111111" stroke-width="1.2"/>
<rect x="73" y="65" width="33" height="33" fill="none" stroke="#111111" stroke-width="1.2"/>
<rect x="73" y="32" width="33" height="33" fill="#111111" stroke="#111111" stroke-width="1.2"/>
<rect x="106" y="263" width="33" height="33" fill="#111111" stroke="#111111" stroke-width="1.2"/>
<rect x="106" y="230" width="33" height="33" fill="none" stroke="#111111" stroke-width="1.2"/>
<rect x="106" y="197" width="33" height="33" fill="#111111" stroke="#111111" stroke-width="1.2"/>
<rect x="106" y="164" width="33" height="33" fill="none" stroke="#111111" stroke-width="1.2"/>
<rect x="106" y="131" width="33" height="33" fill="#111111" stroke="#111111" stroke-width="1.2"/>
<rect x="106" y="98" width="33" height="33" fill="none" stroke="#111111" stroke-width="1.2"/>
<rect x="106" y="65" width="33" height="33" fill="#111111" stroke="#111111" stroke-width="1.2"/>
<rect x="106" y="32" width="33" height="33" fill="none" stroke="#111111" stroke-width="1.2"/>
<rect x="139" y="263" width="33" height="33" fill="none" stroke="#111111" stroke-width="1.2"/>
<rect x="139" y="230" width="33" height="33" fill="#111111" stroke="#111111" stroke-width="1.2"/>
<rect x="139" y="197" width="33" height="33" fill="none" stroke="#111111" stroke-width="1.2"/>
<rect x="139" y="164" width="33" height="33" fill="#111111" stroke="#111111" stroke-width="1.2"/>
<rect x="139" y="131" width="33" height="33" fill="none" stroke="#111111" stroke-width="1.2"/>
<rect x="139" y="98" width="33" height="33" fill="#111111" stroke="#111111" stroke-width="1.2"/>
<rect x="139" y="65" width="33" height="33" fill="none" stroke="#111111" stroke-width="1.2"/>
<rect x="139" y="32" width="33" height="33" fill="#111111" stroke="#111111" stroke-width="1.2"/>
<rect x="172" y="263" width="33" height="33" fill="#111111" stroke="#111111" stroke-width="1.2"/>
<rect x="172" y="230" width="33" height="33" fill="none" stroke="#111111" stroke-width="1.2"/>
<rect x="172" y="197" width="33" height="33" fill="#111111" stroke="#111111" stroke-width="1.2"/>
<rect x="172" y="164" width="33" height="33" fill="none" stroke="#111111" stroke-width="1.2"/>
<rect x="172" y="131" width="33" height="33" fill="#111111" stroke="#111111" stroke-width="1.2"/>
<rect x="172" y="98" width="33" height="33" fill="none" stroke="#111111" stroke-width="1.2"/>
<rect x="172" y="65" width="33" height="33" fill="#111111" stroke="#111111" stroke-width="1.2"/>
<rect x="172" y="32" width="33" height="33" fill="none" stroke="#111111" stroke-width="1.2"/>
<rect x="205" y="263" width="33" height="33" fill="none" stroke="#111111" stroke-width="1.2"/>
<rect x="205" y="230" width="33" height="33" fill="#111111" stroke="#111111" stroke-width="1.2"/>
<rect x="205" y="197" width="33" height="33" fill="none" stroke="#111111" stroke-width="1.2"/>
<rect x="205" y="164" width="33" height="33" fill="#111111" stroke="#111111" stroke-width="1.2"/>
<rect x="205" y="131" width="33" height="33" fill="none" stroke="#111111" stroke-width="1.2"/>
<rect x="205" y="98" width="33" height="33" fill="#111111" stroke="#111111" stroke-width="1.2"/>
<rect x="205" y="65" width="33" height="33" fill="none" stroke="#111111" stroke-width="1.2"/>
<rect x="205" y="32" width="33" height="33" fill="#111111" stroke="#111111" stroke-width="1.2"/>
<rect x="238" y="263" width="33" height="33" fill="#111111" stroke="#111111" stroke-width="1.2"/>
<rect x="238" y="230" width="33" height="33" fill="none" stroke="#111111" stroke-width="1.2"/>
<rect x="238" y="197" width="33" height="33" fill="#111111" stroke="#111111" stroke-width="1.2"/>
<rect x="238" y="164" width="33" height="33" fill="none" stroke="#111111" stroke-width="1.2"/>
<rect x="238" y="131" width="33" height="33" fill="#111111" stroke="#111111" stroke-width="1.2"/>
<rect x="238" y="98" width="33" height="33" fill="none" stroke="#111111" stroke-width="1.2"/>
<rect x="238" y="65" width="33" height="33" fill="#111111" stroke="#111111" stroke-width="1.2"/>
<rect x="238" y="32" width="33" height="33" fill="none" stroke="#111111" stroke-width="1.2"/>
<rect x="271" y="263" width="33" height="33" fill="none" stroke="#111111" stroke-width="1.2"/>
<rect x="271" y="230" width="33" height="33" fill="#111111" stroke="#111111" stroke-width="1.2"/>
<rect x="271" y="197" width="33" height="33" fill="none" stroke="#111111" stroke-width="1.2"/>
<rect x="271" y="164" width="33" height="33" fill="#111111" stroke="#111111" stroke-width="1.2"/>
<rect x="271" y="131" width="33" height="33" fill="none" stroke="#111111" stroke-width="1.2"/>
<rect x="271" y="98" width="33" height="33" fill="#111111" stroke="#111111" stroke-width="1.2"/>
<rect x="271" y="65" width="33" height="33" fill="none" stroke="#111111" stroke-width="1.2"/>
<polygon points="40,296 304,296 304,65 271,65 271,32 40,32" fill="none" stroke="#111111" stroke-width="2.6"/>
<rect x="274.3" y="35.3" width="26.4" height="26.4" fill="none" stroke="#111111" stroke-width="1.8" stroke-dasharray="4.5 3.5"/>
<line x1="280.24" y1="41.24" x2="294.76" y2="55.76" stroke="#111111" stroke-width="1.8"/>
<line x1="280.24" y1="55.76" x2="294.76" y2="41.24" stroke="#111111" stroke-width="1.8"/>
<text x="172" y="330" text-anchor="middle" font-family="Pretendard, 'NanumSquareRound', sans-serif" font-size="21" fill="#111111"><tspan x="172" dy="0">모서리 한 칸을 뗀 63칸</tspan></text>
<rect x="452" y="144.20000000000002" width="92" height="46" rx="8" fill="none" stroke="#111111" stroke-width="3.5"/>
<line x1="498.0" y1="148.20000000000002" x2="498.0" y2="186.20000000000002" stroke="#111111" stroke-width="2"/>
<text x="562" y="175.48000000000002" font-family="Pretendard, 'NanumSquareRound', sans-serif" font-size="30" fill="#111111">× ?</text>
<text x="525.6" y="330" text-anchor="middle" font-family="Pretendard, 'NanumSquareRound', sans-serif" font-size="21" fill="#111111"><tspan x="525.6" dy="0">도미노가 몇 개 필요할까</tspan><tspan x="525.6" dy="26">— 개수부터 따져 보라</tspan></text>
</svg>
