<svg xmlns="http://www.w3.org/2000/svg" viewBox="0 0 640 396" width="640" height="396">
<rect x="24" y="250" width="46" height="46" fill="#111111"/>
<rect x="24" y="158" width="46" height="46" fill="#111111"/>
<rect x="70" y="204" width="46" height="46" fill="#111111"/>
<rect x="70" y="112" width="46" height="46" fill="#111111"/>
<rect x="116" y="250" width="46" height="46" fill="#111111"/>
<rect x="116" y="158" width="46" height="46" fill="#111111"/>
<rect x="162" y="204" width="46" height="46" fill="#111111"/>
<rect x="162" y="112" width="46" height="46" fill="#111111"/>
<line x1="24" y1="112" x2="24" y2="296" stroke="#111111" stroke-width="1.5"/>
<line x1="24" y1="112" x2="208" y2="112" stroke="#111111" stroke-width="1.5"/>
<line x1="70" y1="112" x2="70" y2="296" stroke="#111111" stroke-width="1.5"/>
<line x1="24" y1="158" x2="208" y2="158" stroke="#111111" stroke-width="1.5"/>
<line x1="116" y1="112" x2="116" y2="296" stroke="#111111" stroke-width="1.5"/>
<line x1="24" y1="204" x2="208" y2="204" stroke="#111111" stroke-width="1.5"/>
<line x1="162" y1="112" x2="162" y2="296" stroke="#111111" stroke-width="1.5"/>
<line x1="24" y1="250" x2="208" y2="250" stroke="#111111" stroke-width="1.5"/>
<line x1="208" y1="112" x2="208" y2="296" stroke="#111111" stroke-width="1.5"/>
<line x1="24" y1="296" x2="208" y2="296" stroke="#111111" stroke-width="1.5"/>
<rect x="24" y="112" width="184" height="184" fill="none" stroke="#111111" stroke-width="3"/>
<rect x="25.38" y="159.38" width="89.24" height="43.239999999999995" rx="6" fill="none" stroke="#ffffff" stroke-width="7.5"/>
<rect x="25.38" y="159.38" width="89.24" height="43.239999999999995" rx="6" fill="none" stroke="#111111" stroke-width="4"/>
<rect x="117.38" y="205.38" width="43.239999999999995" height="89.24" rx="6" fill="none" stroke="#ffffff" stroke-width="7.5"/>
<rect x="117.38" y="205.38" width="43.239999999999995" height="89.24" rx="6" fill="none" stroke="#111111" stroke-width="4"/>
<text x="116" y="330" text-anchor="middle" font-family="Pretendard, 'NanumSquareRound', sans-serif" font-size="21" fill="#111111"><tspan x="116" dy="0">도미노는 어디에 놓아도</tspan><tspan x="116" dy="26">검 1 + 흰 1</tspan></text>
<rect x="330" y="230" width="33" height="33" fill="none" stroke="#111111" stroke-width="1.4"/>
<rect x="330" y="197" width="33" height="33" fill="#111111" stroke="#111111" stroke-width="1.4"/>
<rect x="330" y="164" width="33" height="33" fill="none" stroke="#111111" stroke-width="1.4"/>
<rect x="330" y="131" width="33" height="33" fill="#111111" stroke="#111111" stroke-width="1.4"/>
<rect x="330" y="98" width="33" height="33" fill="none" stroke="#111111" stroke-width="1.4"/>
<rect x="330" y="65" width="33" height="33" fill="#111111" stroke="#111111" stroke-width="1.4"/>
<rect x="330" y="32" width="33" height="33" fill="none" stroke="#111111" stroke-width="1.4"/>
<rect x="363" y="263" width="33" height="33" fill="none" stroke="#111111" stroke-width="1.4"/>
<rect x="363" y="230" width="33" height="33" fill="#111111" stroke="#111111" stroke-width="1.4"/>
<rect x="363" y="197" width="33" height="33" fill="none" stroke="#111111" stroke-width="1.4"/>
<rect x="363" y="164" width="33" height="33" fill="#111111" stroke="#111111" stroke-width="1.4"/>
<rect x="363" y="131" width="33" height="33" fill="none" stroke="#111111" stroke-width="1.4"/>
<rect x="363" y="98" width="33" height="33" fill="#111111" stroke="#111111" stroke-width="1.4"/>
<rect x="363" y="65" width="33" height="33" fill="none" stroke="#111111" stroke-width="1.4"/>
<rect x="363" y="32" width="33" height="33" fill="#111111" stroke="#111111" stroke-width="1.4"/>
<rect x="396" y="263" width="33" height="33" fill="#111111" stroke="#111111" stroke-width="1.4"/>
<rect x="396" y="230" width="33" height="33" fill="none" stroke="#111111" stroke-width="1.4"/>
<rect x="396" y="197" width="33" height="33" fill="#111111" stroke="#111111" stroke-width="1.4"/>
<rect x="396" y="164" width="33" height="33" fill="none" stroke="#111111" stroke-width="1.4"/>
<rect x="396" y="131" width="33" height="33" fill="#111111" stroke="#111111" stroke-width="1.4"/>
<rect x="396" y="98" width="33" height="33" fill="none" stroke="#111111" stroke-width="1.4"/>
<rect x="396" y="65" width="33" height="33" fill="#111111" stroke="#111111" stroke-width="1.4"/>
<rect x="396" y="32" width="33" height="33" fill="none" stroke="#111111" stroke-width="1.4"/>
<rect x="429" y="263" width="33" height="33" fill="none" stroke="#111111" stroke-width="1.4"/>
<rect x="429" y="230" width="33" height="33" fill="#111111" stroke="#111111" stroke-width="1.4"/>
<rect x="429" y="197" width="33" height="33" fill="none" stroke="#111111" stroke-width="1.4"/>
<rect x="429" y="164" width="33" height="33" fill="#111111" stroke="#111111" stroke-width="1.4"/>
<rect x="429" y="131" width="33" height="33" fill="none" stroke="#111111" stroke-width="1.4"/>
<rect x="429" y="98" width="33" height="33" fill="#111111" stroke="#111111" stroke-width="1.4"/>
<rect x="429" y="65" width="33" height="33" fill="none" stroke="#111111" stroke-width="1.4"/>
<rect x="429" y="32" width="33" height="33" fill="#111111" stroke="#111111" stroke-width="1.4"/>
<rect x="462" y="263" width="33" height="33" fill="#111111" stroke="#111111" stroke-width="1.4"/>
<rect x="462" y="230" width="33" height="33" fill="none" stroke="#111111" stroke-width="1.4"/>
<rect x="462" y="197" width="33" height="33" fill="#111111" stroke="#111111" stroke-width="1.4"/>
<rect x="462" y="164" width="33" height="33" fill="none" stroke="#111111" stroke-width="1.4"/>
<rect x="462" y="131" width="33" height="33" fill="#111111" stroke="#111111" stroke-width="1.4"/>
<rect x="462" y="98" width="33" height="33" fill="none" stroke="#111111" stroke-width="1.4"/>
<rect x="462" y="65" width="33" height="33" fill="#111111" stroke="#111111" stroke-width="1.4"/>
<rect x="462" y="32" width="33" height="33" fill="none" stroke="#111111" stroke-width="1.4"/>
<rect x="495" y="263" width="33" height="33" fill="none" stroke="#111111" stroke-width="1.4"/>
<rect x="495" y="230" width="33" height="33" fill="#111111" stroke="#111111" stroke-width="1.4"/>
<rect x="495" y="197" width="33" height="33" fill="none" stroke="#111111" stroke-width="1.4"/>
<rect x="495" y="164" width="33" height="33" fill="#111111" stroke="#111111" stroke-width="1.4"/>
<rect x="495" y="131" width="33" height="33" fill="none" stroke="#111111" stroke-width="1.4"/>
<rect x="495" y="98" width="33" height="33" fill="#111111" stroke="#111111" stroke-width="1.4"/>
<rect x="495" y="65" width="33" height="33" fill="none" stroke="#111111" stroke-width="1.4"/>
<rect x="495" y="32" width="33" height="33" fill="#111111" stroke="#111111" stroke-width="1.4"/>
<rect x="528" y="263" width="33" height="33" fill="#111111" stroke="#111111" stroke-width="1.4"/>
<rect x="528" y="230" width="33" height="33" fill="none" stroke="#111111" stroke-width="1.4"/>
<rect x="528" y="197" width="33" height="33" fill="#111111" stroke="#111111" stroke-width="1.4"/>
<rect x="528" y="164" width="33" height="33" fill="none" stroke="#111111" stroke-width="1.4"/>
<rect x="528" y="131" width="33" height="33" fill="#111111" stroke="#111111" stroke-width="1.4"/>
<rect x="528" y="98" width="33" height="33" fill="none" stroke="#111111" stroke-width="1.4"/>
<rect x="528" y="65" width="33" height="33" fill="#111111" stroke="#111111" stroke-width="1.4"/>
<rect x="528" y="32" width="33" height="33" fill="none" stroke="#111111" stroke-width="1.4"/>
<rect x="561" y="263" width="33" height="33" fill="none" stroke="#111111" stroke-width="1.4"/>
<rect x="561" y="230" width="33" height="33" fill="#111111" stroke="#111111" stroke-width="1.4"/>
<rect x="561" y="197" width="33" height="33" fill="none" stroke="#111111" stroke-width="1.4"/>
<rect x="561" y="164" width="33" height="33" fill="#111111" stroke="#111111" stroke-width="1.4"/>
<rect x="561" y="131" width="33" height="33" fill="none" stroke="#111111" stroke-width="1.4"/>
<rect x="561" y="98" width="33" height="33" fill="#111111" stroke="#111111" stroke-width="1.4"/>
<rect x="561" y="65" width="33" height="33" fill="none" stroke="#111111" stroke-width="1.4"/>
<polygon points="363,296 594,296 594,65 561,65 561,32 330,32 330,263 363,263" fill="none" stroke="#111111" stroke-width="3"/>
<rect x="563.97" y="34.97" width="27.060000000000002" height="27.060000000000002" fill="#9a9a9a" stroke="#111111" stroke-width="2" stroke-dasharray="5 4"/>
<rect x="332.97" y="265.97" width="27.060000000000002" height="27.060000000000002" fill="#9a9a9a" stroke="#111111" stroke-width="2" stroke-dasharray="5 4"/>
<text x="462" y="330" text-anchor="middle" font-family="Pretendard, 'NanumSquareRound', sans-serif" font-size="21" fill="#111111"><tspan x="462" dy="0">떼어낸 두 모서리는 같은 색</tspan><tspan x="462" dy="26">— 둘 다 검은 칸</tspan></text>
</svg>
