<svg xmlns="http://www.w3.org/2000/svg" viewBox="0 0 700 396" width="700" height="396">
<rect x="40" y="230" width="33" height="33" fill="none" stroke="#111111" stroke-width="1.4"/>
<rect x="40" y="197" width="33" height="33" fill="#111111" stroke="#111111" stroke-width="1.4"/>
<rect x="40" y="164" width="33" height="33" fill="none" stroke="#111111" stroke-width="1.4"/>
<rect x="40" y="131" width="33" height="33" fill="#111111" stroke="#111111" stroke-width="1.4"/>
<rect x="40" y="98" width="33" height="33" fill="none" stroke="#111111" stroke-width="1.4"/>
<rect x="40" y="65" width="33" height="33" fill="#111111" stroke="#111111" stroke-width="1.4"/>
<rect x="40" y="32" width="33" height="33" fill="none" stroke="#111111" stroke-width="1.4"/>
<rect x="73" y="263" width="33" height="33" fill="none" stroke="#111111" stroke-width="1.4"/>
<rect x="73" y="230" width="33" height="33" fill="#111111" stroke="#111111" stroke-width="1.4"/>
<rect x="73" y="197" width="33" height="33" fill="none" stroke="#111111" stroke-width="1.4"/>
<rect x="73" y="164" width="33" height="33" fill="#111111" stroke="#111111" stroke-width="1.4"/>
<rect x="73" y="131" width="33" height="33" fill="none" stroke="#111111" stroke-width="1.4"/>
<rect x="73" y="98" width="33" height="33" fill="#111111" stroke="#111111" stroke-width="1.4"/>
<rect x="73" y="65" width="33" height="33" fill="none" stroke="#111111" stroke-width="1.4"/>
<rect x="73" y="32" width="33" height="33" fill="#111111" stroke="#111111" stroke-width="1.4"/>
<rect x="106" y="263" width="33" height="33" fill="#111111" stroke="#111111" stroke-width="1.4"/>
<rect x="106" y="230" width="33" height="33" fill="none" stroke="#111111" stroke-width="1.4"/>
<rect x="106" y="197" width="33" height="33" fill="#111111" stroke="#111111" stroke-width="1.4"/>
<rect x="106" y="164" width="33" height="33" fill="none" stroke="#111111" stroke-width="1.4"/>
<rect x="106" y="131" width="33" height="33" fill="#111111" stroke="#111111" stroke-width="1.4"/>
<rect x="106" y="98" width="33" height="33" fill="none" stroke="#111111" stroke-width="1.4"/>
<rect x="106" y="65" width="33" height="33" fill="#111111" stroke="#111111" stroke-width="1.4"/>
<rect x="106" y="32" width="33" height="33" fill="none" stroke="#111111" stroke-width="1.4"/>
<rect x="139" y="263" width="33" height="33" fill="none" stroke="#111111" stroke-width="1.4"/>
<rect x="139" y="230" width="33" height="33" fill="#111111" stroke="#111111" stroke-width="1.4"/>
<rect x="139" y="197" width="33" height="33" fill="none" stroke="#111111" stroke-width="1.4"/>
<rect x="139" y="164" width="33" height="33" fill="#111111" stroke="#111111" stroke-width="1.4"/>
<rect x="139" y="131" width="33" height="33" fill="none" stroke="#111111" stroke-width="1.4"/>
<rect x="139" y="98" width="33" height="33" fill="#111111" stroke="#111111" stroke-width="1.4"/>
<rect x="139" y="65" width="33" height="33" fill="none" stroke="#111111" stroke-width="1.4"/>
<rect x="139" y="32" width="33" height="33" fill="#111111" stroke="#111111" stroke-width="1.4"/>
<rect x="172" y="263" width="33" height="33" fill="#111111" stroke="#111111" stroke-width="1.4"/>
<rect x="172" y="230" width="33" height="33" fill="none" stroke="#111111" stroke-width="1.4"/>
<rect x="172" y="197" width="33" height="33" fill="#111111" stroke="#111111" stroke-width="1.4"/>
<rect x="172" y="164" width="33" height="33" fill="none" stroke="#111111" stroke-width="1.4"/>
<rect x="172" y="131" width="33" height="33" fill="#111111" stroke="#111111" stroke-width="1.4"/>
<rect x="172" y="98" width="33" height="33" fill="none" stroke="#111111" stroke-width="1.4"/>
<rect x="172" y="65" width="33" height="33" fill="#111111" stroke="#111111" stroke-width="1.4"/>
<rect x="172" y="32" width="33" height="33" fill="none" stroke="#111111" stroke-width="1.4"/>
<rect x="205" y="263" width="33" height="33" fill="none" stroke="#111111" stroke-width="1.4"/>
<rect x="205" y="230" width="33" height="33" fill="#111111" stroke="#111111" stroke-width="1.4"/>
<rect x="205" y="197" width="33" height="33" fill="none" stroke="#111111" stroke-width="1.4"/>
<rect x="205" y="164" width="33" height="33" fill="#111111" stroke="#111111" stroke-width="1.4"/>
<rect x="205" y="131" width="33" height="33" fill="none" stroke="#111111" stroke-width="1.4"/>
<rect x="205" y="98" width="33" height="33" fill="#111111" stroke="#111111" stroke-width="1.4"/>
<rect x="205" y="65" width="33" height="33" fill="none" stroke="#111111" stroke-width="1.4"/>
<rect x="205" y="32" width="33" height="33" fill="#111111" stroke="#111111" stroke-width="1.4"/>
<rect x="238" y="263" width="33" height="33" fill="#111111" stroke="#111111" stroke-width="1.4"/>
<rect x="238" y="230" width="33" height="33" fill="none" stroke="#111111" stroke-width="1.4"/>
<rect x="238" y="197" width="33" height="33" fill="#111111" stroke="#111111" stroke-width="1.4"/>
<rect x="238" y="164" width="33" height="33" fill="none" stroke="#111111" stroke-width="1.4"/>
<rect x="238" y="131" width="33" height="33" fill="#111111" stroke="#111111" stroke-width="1.4"/>
<rect x="238" y="98" width="33" height="33" fill="none" stroke="#111111" stroke-width="1.4"/>
<rect x="238" y="65" width="33" height="33" fill="#111111" stroke="#111111" stroke-width="1.4"/>
<rect x="238" y="32" width="33" height="33" fill="none" stroke="#111111" stroke-width="1.4"/>
<rect x="271" y="263" width="33" height="33" fill="none" stroke="#111111" stroke-width="1.4"/>
<rect x="271" y="230" width="33" height="33" fill="#111111" stroke="#111111" stroke-width="1.4"/>
<rect x="271" y="197" width="33" height="33" fill="none" stroke="#111111" stroke-width="1.4"/>
<rect x="271" y="164" width="33" height="33" fill="#111111" stroke="#111111" stroke-width="1.4"/>
<rect x="271" y="131" width="33" height="33" fill="none" stroke="#111111" stroke-width="1.4"/>
<rect x="271" y="98" width="33" height="33" fill="#111111" stroke="#111111" stroke-width="1.4"/>
<rect x="271" y="65" width="33" height="33" fill="none" stroke="#111111" stroke-width="1.4"/>
<polygon points="73,296 304,296 304,65 271,65 271,32 40,32 40,263 73,263" fill="none" stroke="#111111" stroke-width="3"/>
<rect x="273.97" y="34.97" width="27.060000000000002" height="27.060000000000002" fill="none" stroke="#111111" stroke-width="2" stroke-dasharray="5 4"/>
<line x1="279.58" y1="40.58" x2="295.42" y2="56.42" stroke="#111111" stroke-width="2"/>
<line x1="279.58" y1="56.42" x2="295.42" y2="40.58" stroke="#111111" stroke-width="2"/>
<rect x="42.97" y="265.97" width="27.060000000000002" height="27.060000000000002" fill="none" stroke="#111111" stroke-width="2" stroke-dasharray="5 4"/>
<line x1="48.58" y1="271.58" x2="64.42" y2="287.42" stroke="#111111" stroke-width="2"/>
<line x1="48.58" y1="287.42" x2="64.42" y2="271.58" stroke="#111111" stroke-width="2"/>
<text x="172" y="330" text-anchor="middle" font-family="Pretendard, 'NanumSquareRound', sans-serif" font-size="21" fill="#111111"><tspan x="172" dy="0">마주 보는 두 모서리를 뗀 62칸</tspan></text>
<rect x="452" y="144.20000000000002" width="92" height="46" rx="8" fill="none" stroke="#111111" stroke-width="3.5"/>
<line x1="498" y1="148.20000000000002" x2="498" y2="186.20000000000002" stroke="#111111" stroke-width="2"/>
<text x="562" y="175.48000000000002" font-family="Pretendard, 'NanumSquareRound', sans-serif" font-size="30" fill="#111111">× 31</text>
<text x="525.6" y="330" text-anchor="middle" font-family="Pretendard, 'NanumSquareRound', sans-serif" font-size="21" fill="#111111"><tspan x="525.6" dy="0">도미노 = 이웃 두 칸을 덮는 타일</tspan><tspan x="525.6" dy="26">62칸 ÷ 2 = 31개, 개수는 딱 맞다</tspan></text>
</svg>
