<svg xmlns="http://www.w3.org/2000/svg" viewBox="0 0 700 396" width="700" height="396">
<rect x="40" y="144" width="228" height="152" rx="5" fill="#e6e6e6" stroke="#111111" stroke-width="2.8"/>
<line x1="78" y1="144" x2="78" y2="296" stroke="#111111" stroke-width="1.3"/>
<line x1="116" y1="144" x2="116" y2="296" stroke="#111111" stroke-width="1.3"/>
<line x1="154" y1="144" x2="154" y2="296" stroke="#111111" stroke-width="1.3"/>
<line x1="192" y1="144" x2="192" y2="296" stroke="#111111" stroke-width="1.3"/>
<line x1="230" y1="144" x2="230" y2="296" stroke="#111111" stroke-width="1.3"/>
<line x1="40" y1="182" x2="268" y2="182" stroke="#111111" stroke-width="1.3"/>
<line x1="40" y1="220" x2="268" y2="220" stroke="#111111" stroke-width="1.3"/>
<line x1="40" y1="258" x2="268" y2="258" stroke="#111111" stroke-width="1.3"/>
<rect x="46.84" y="150.84" width="24.32" height="24.32" rx="3" fill="none" stroke="#111111" stroke-width="0.9" opacity="0.55"/>
<rect x="46.84" y="188.84" width="24.32" height="24.32" rx="3" fill="none" stroke="#111111" stroke-width="0.9" opacity="0.55"/>
<rect x="46.84" y="226.84" width="24.32" height="24.32" rx="3" fill="none" stroke="#111111" stroke-width="0.9" opacity="0.55"/>
<rect x="46.84" y="264.84" width="24.32" height="24.32" rx="3" fill="none" stroke="#111111" stroke-width="0.9" opacity="0.55"/>
<rect x="84.84" y="150.84" width="24.32" height="24.32" rx="3" fill="none" stroke="#111111" stroke-width="0.9" opacity="0.55"/>
<rect x="84.84" y="188.84" width="24.32" height="24.32" rx="3" fill="none" stroke="#111111" stroke-width="0.9" opacity="0.55"/>
<rect x="84.84" y="226.84" width="24.32" height="24.32" rx="3" fill="none" stroke="#111111" stroke-width="0.9" opacity="0.55"/>
<rect x="84.84" y="264.84" width="24.32" height="24.32" rx="3" fill="none" stroke="#111111" stroke-width="0.9" opacity="0.55"/>
<rect x="122.84" y="150.84" width="24.32" height="24.32" rx="3" fill="none" stroke="#111111" stroke-width="0.9" opacity="0.55"/>
<rect x="122.84" y="188.84" width="24.32" height="24.32" rx="3" fill="none" stroke="#111111" stroke-width="0.9" opacity="0.55"/>
<rect x="122.84" y="226.84" width="24.32" height="24.32" rx="3" fill="none" stroke="#111111" stroke-width="0.9" opacity="0.55"/>
<rect x="122.84" y="264.84" width="24.32" height="24.32" rx="3" fill="none" stroke="#111111" stroke-width="0.9" opacity="0.55"/>
<rect x="160.84" y="150.84" width="24.32" height="24.32" rx="3" fill="none" stroke="#111111" stroke-width="0.9" opacity="0.55"/>
<rect x="160.84" y="188.84" width="24.32" height="24.32" rx="3" fill="none" stroke="#111111" stroke-width="0.9" opacity="0.55"/>
<rect x="160.84" y="226.84" width="24.32" height="24.32" rx="3" fill="none" stroke="#111111" stroke-width="0.9" opacity="0.55"/>
<rect x="160.84" y="264.84" width="24.32" height="24.32" rx="3" fill="none" stroke="#111111" stroke-width="0.9" opacity="0.55"/>
<rect x="198.84" y="150.84" width="24.32" height="24.32" rx="3" fill="none" stroke="#111111" stroke-width="0.9" opacity="0.55"/>
<rect x="198.84" y="188.84" width="24.32" height="24.32" rx="3" fill="none" stroke="#111111" stroke-width="0.9" opacity="0.55"/>
<rect x="198.84" y="226.84" width="24.32" height="24.32" rx="3" fill="none" stroke="#111111" stroke-width="0.9" opacity="0.55"/>
<rect x="198.84" y="264.84" width="24.32" height="24.32" rx="3" fill="none" stroke="#111111" stroke-width="0.9" opacity="0.55"/>
<rect x="236.84" y="150.84" width="24.32" height="24.32" rx="3" fill="none" stroke="#111111" stroke-width="0.9" opacity="0.55"/>
<rect x="236.84" y="188.84" width="24.32" height="24.32" rx="3" fill="none" stroke="#111111" stroke-width="0.9" opacity="0.55"/>
<rect x="236.84" y="226.84" width="24.32" height="24.32" rx="3" fill="none" stroke="#111111" stroke-width="0.9" opacity="0.55"/>
<rect x="236.84" y="264.84" width="24.32" height="24.32" rx="3" fill="none" stroke="#111111" stroke-width="0.9" opacity="0.55"/>
<text x="154" y="330" text-anchor="middle" font-family="Pretendard, 'NanumSquareRound', sans-serif" font-size="21" fill="#111111"><tspan x="154" dy="0">4×6 — 24조각 판초콜릿</tspan></text>
<rect x="388" y="160" width="90" height="60" rx="5" fill="#e6e6e6" stroke="#111111" stroke-width="2.8"/>
<line x1="418" y1="160" x2="418" y2="220" stroke="#111111" stroke-width="1.3"/>
<line x1="448" y1="160" x2="448" y2="220" stroke="#111111" stroke-width="1.3"/>
<line x1="388" y1="190" x2="478" y2="190" stroke="#111111" stroke-width="1.3"/>
<rect x="393.4" y="165.4" width="19.200000000000003" height="19.200000000000003" rx="3" fill="none" stroke="#111111" stroke-width="0.9" opacity="0.55"/>
<rect x="393.4" y="195.4" width="19.200000000000003" height="19.200000000000003" rx="3" fill="none" stroke="#111111" stroke-width="0.9" opacity="0.55"/>
<rect x="423.4" y="165.4" width="19.200000000000003" height="19.200000000000003" rx="3" fill="none" stroke="#111111" stroke-width="0.9" opacity="0.55"/>
<rect x="423.4" y="195.4" width="19.200000000000003" height="19.200000000000003" rx="3" fill="none" stroke="#111111" stroke-width="0.9" opacity="0.55"/>
<rect x="453.4" y="165.4" width="19.200000000000003" height="19.200000000000003" rx="3" fill="none" stroke="#111111" stroke-width="0.9" opacity="0.55"/>
<rect x="453.4" y="195.4" width="19.200000000000003" height="19.200000000000003" rx="3" fill="none" stroke="#111111" stroke-width="0.9" opacity="0.55"/>
<line x1="418" y1="151" x2="418" y2="229" stroke="#111111" stroke-width="2.4" stroke-dasharray="7 5"/>
<line x1="494" y1="190" x2="542" y2="190" stroke="#111111" stroke-width="3"/>
<polygon points="552,190 539,183.5 539,196.5" fill="#111111"/>
<rect x="566" y="160" width="30" height="60" rx="5" fill="#e6e6e6" stroke="#111111" stroke-width="2.8"/>
<line x1="566" y1="190" x2="596" y2="190" stroke="#111111" stroke-width="1.3"/>
<rect x="571.4" y="165.4" width="19.200000000000003" height="19.200000000000003" rx="3" fill="none" stroke="#111111" stroke-width="0.9" opacity="0.55"/>
<rect x="571.4" y="195.4" width="19.200000000000003" height="19.200000000000003" rx="3" fill="none" stroke="#111111" stroke-width="0.9" opacity="0.55"/>
<rect x="610" y="160" width="60" height="60" rx="5" fill="#e6e6e6" stroke="#111111" stroke-width="2.8"/>
<line x1="640" y1="160" x2="640" y2="220" stroke="#111111" stroke-width="1.3"/>
<line x1="610" y1="190" x2="670" y2="190" stroke="#111111" stroke-width="1.3"/>
<rect x="615.4" y="165.4" width="19.200000000000003" height="19.200000000000003" rx="3" fill="none" stroke="#111111" stroke-width="0.9" opacity="0.55"/>
<rect x="615.4" y="195.4" width="19.200000000000003" height="19.200000000000003" rx="3" fill="none" stroke="#111111" stroke-width="0.9" opacity="0.55"/>
<rect x="645.4" y="165.4" width="19.200000000000003" height="19.200000000000003" rx="3" fill="none" stroke="#111111" stroke-width="0.9" opacity="0.55"/>
<rect x="645.4" y="195.4" width="19.200000000000003" height="19.200000000000003" rx="3" fill="none" stroke="#111111" stroke-width="0.9" opacity="0.55"/>
<text x="529.0" y="330" text-anchor="middle" font-family="Pretendard, 'NanumSquareRound', sans-serif" font-size="21" fill="#111111"><tspan x="529.0" dy="0">쪼개기 한 번 = 금을 따라</tspan><tspan x="529.0" dy="26">한 덩어리 → 두 덩어리</tspan></text>
</svg>
