<svg xmlns="http://www.w3.org/2000/svg" viewBox="0 0 560 396" width="560" height="396">
<circle cx="66" cy="74" r="24" fill="#111111" stroke="#111111" stroke-width="2.6"/>
<text x="66" y="82.28" text-anchor="middle" font-family="Pretendard, 'NanumSquareRound', sans-serif" font-size="23" fill="#ffffff">뒤</text>
<circle cx="122" cy="74" r="24" fill="#111111" stroke="#111111" stroke-width="2.6"/>
<text x="122" y="82.28" text-anchor="middle" font-family="Pretendard, 'NanumSquareRound', sans-serif" font-size="23" fill="#ffffff">뒤</text>
<line x1="162" y1="74" x2="214" y2="74" stroke="#111111" stroke-width="3"/>
<polygon points="224,74 211,67.5 211,80.5" fill="#111111"/>
<circle cx="264" cy="74" r="24" fill="#ffffff" stroke="#111111" stroke-width="2.6"/>
<text x="264" y="82.28" text-anchor="middle" font-family="Pretendard, 'NanumSquareRound', sans-serif" font-size="23" fill="#111111">앞</text>
<circle cx="320" cy="74" r="24" fill="#ffffff" stroke="#111111" stroke-width="2.6"/>
<text x="320" y="82.28" text-anchor="middle" font-family="Pretendard, 'NanumSquareRound', sans-serif" font-size="23" fill="#111111">앞</text>
<text x="376" y="82" font-family="Pretendard, 'NanumSquareRound', sans-serif" font-size="23" fill="#111111">앞면 +2</text>
<circle cx="66" cy="166" r="24" fill="#ffffff" stroke="#111111" stroke-width="2.6"/>
<text x="66" y="174.28" text-anchor="middle" font-family="Pretendard, 'NanumSquareRound', sans-serif" font-size="23" fill="#111111">앞</text>
<circle cx="122" cy="166" r="24" fill="#ffffff" stroke="#111111" stroke-width="2.6"/>
<text x="122" y="174.28" text-anchor="middle" font-family="Pretendard, 'NanumSquareRound', sans-serif" font-size="23" fill="#111111">앞</text>
<line x1="162" y1="166" x2="214" y2="166" stroke="#111111" stroke-width="3"/>
<polygon points="224,166 211,159.5 211,172.5" fill="#111111"/>
<circle cx="264" cy="166" r="24" fill="#111111" stroke="#111111" stroke-width="2.6"/>
<text x="264" y="174.28" text-anchor="middle" font-family="Pretendard, 'NanumSquareRound', sans-serif" font-size="23" fill="#ffffff">뒤</text>
<circle cx="320" cy="166" r="24" fill="#111111" stroke="#111111" stroke-width="2.6"/>
<text x="320" y="174.28" text-anchor="middle" font-family="Pretendard, 'NanumSquareRound', sans-serif" font-size="23" fill="#ffffff">뒤</text>
<text x="376" y="174" font-family="Pretendard, 'NanumSquareRound', sans-serif" font-size="23" fill="#111111">앞면 −2</text>
<circle cx="66" cy="258" r="24" fill="#ffffff" stroke="#111111" stroke-width="2.6"/>
<text x="66" y="266.28" text-anchor="middle" font-family="Pretendard, 'NanumSquareRound', sans-serif" font-size="23" fill="#111111">앞</text>
<circle cx="122" cy="258" r="24" fill="#111111" stroke="#111111" stroke-width="2.6"/>
<text x="122" y="266.28" text-anchor="middle" font-family="Pretendard, 'NanumSquareRound', sans-serif" font-size="23" fill="#ffffff">뒤</text>
<line x1="162" y1="258" x2="214" y2="258" stroke="#111111" stroke-width="3"/>
<polygon points="224,258 211,251.5 211,264.5" fill="#111111"/>
<circle cx="264" cy="258" r="24" fill="#111111" stroke="#111111" stroke-width="2.6"/>
<text x="264" y="266.28" text-anchor="middle" font-family="Pretendard, 'NanumSquareRound', sans-serif" font-size="23" fill="#ffffff">뒤</text>
<circle cx="320" cy="258" r="24" fill="#ffffff" stroke="#111111" stroke-width="2.6"/>
<text x="320" y="266.28" text-anchor="middle" font-family="Pretendard, 'NanumSquareRound', sans-serif" font-size="23" fill="#111111">앞</text>
<text x="376" y="266" font-family="Pretendard, 'NanumSquareRound', sans-serif" font-size="23" fill="#111111">앞면 그대로 (0)</text>
<text x="280" y="330" text-anchor="middle" font-family="Pretendard, 'NanumSquareRound', sans-serif" font-size="21" fill="#111111"><tspan x="280" dy="0">어떤 2개를 골라도 변화는 +2 · −2 · 0뿐</tspan><tspan x="280" dy="26">→ ‘앞면 개수의 홀짝’은 절대 안 변한다</tspan></text>
</svg>
