<svg xmlns="http://www.w3.org/2000/svg" viewBox="0 0 560 396" width="560" height="396">
<rect x="160" y="266" width="30" height="30" fill="#cfcfcf" stroke="#111111" stroke-width="1.2"/>
<rect x="160" y="236" width="30" height="30" fill="none" stroke="#111111" stroke-width="1.2"/>
<rect x="160" y="206" width="30" height="30" fill="#cfcfcf" stroke="#111111" stroke-width="1.2"/>
<rect x="160" y="176" width="30" height="30" fill="none" stroke="#111111" stroke-width="1.2"/>
<rect x="160" y="146" width="30" height="30" fill="#cfcfcf" stroke="#111111" stroke-width="1.2"/>
<rect x="160" y="116" width="30" height="30" fill="none" stroke="#111111" stroke-width="1.2"/>
<rect x="160" y="86" width="30" height="30" fill="#cfcfcf" stroke="#111111" stroke-width="1.2"/>
<rect x="160" y="56" width="30" height="30" fill="none" stroke="#111111" stroke-width="1.2"/>
<rect x="190" y="266" width="30" height="30" fill="none" stroke="#111111" stroke-width="1.2"/>
<rect x="190" y="236" width="30" height="30" fill="#cfcfcf" stroke="#111111" stroke-width="1.2"/>
<rect x="190" y="206" width="30" height="30" fill="none" stroke="#111111" stroke-width="1.2"/>
<rect x="190" y="176" width="30" height="30" fill="#cfcfcf" stroke="#111111" stroke-width="1.2"/>
<rect x="190" y="146" width="30" height="30" fill="none" stroke="#111111" stroke-width="1.2"/>
<rect x="190" y="116" width="30" height="30" fill="#cfcfcf" stroke="#111111" stroke-width="1.2"/>
<rect x="190" y="86" width="30" height="30" fill="none" stroke="#111111" stroke-width="1.2"/>
<rect x="190" y="56" width="30" height="30" fill="#cfcfcf" stroke="#111111" stroke-width="1.2"/>
<rect x="220" y="266" width="30" height="30" fill="#cfcfcf" stroke="#111111" stroke-width="1.2"/>
<rect x="220" y="236" width="30" height="30" fill="none" stroke="#111111" stroke-width="1.2"/>
<rect x="220" y="206" width="30" height="30" fill="#cfcfcf" stroke="#111111" stroke-width="1.2"/>
<rect x="220" y="176" width="30" height="30" fill="none" stroke="#111111" stroke-width="1.2"/>
<rect x="220" y="146" width="30" height="30" fill="#cfcfcf" stroke="#111111" stroke-width="1.2"/>
<rect x="220" y="116" width="30" height="30" fill="none" stroke="#111111" stroke-width="1.2"/>
<rect x="220" y="86" width="30" height="30" fill="#cfcfcf" stroke="#111111" stroke-width="1.2"/>
<rect x="220" y="56" width="30" height="30" fill="none" stroke="#111111" stroke-width="1.2"/>
<rect x="250" y="266" width="30" height="30" fill="none" stroke="#111111" stroke-width="1.2"/>
<rect x="250" y="236" width="30" height="30" fill="#cfcfcf" stroke="#111111" stroke-width="1.2"/>
<rect x="250" y="206" width="30" height="30" fill="none" stroke="#111111" stroke-width="1.2"/>
<rect x="250" y="176" width="30" height="30" fill="#cfcfcf" stroke="#111111" stroke-width="1.2"/>
<rect x="250" y="146" width="30" height="30" fill="none" stroke="#111111" stroke-width="1.2"/>
<rect x="250" y="116" width="30" height="30" fill="#cfcfcf" stroke="#111111" stroke-width="1.2"/>
<rect x="250" y="86" width="30" height="30" fill="none" stroke="#111111" stroke-width="1.2"/>
<rect x="250" y="56" width="30" height="30" fill="#cfcfcf" stroke="#111111" stroke-width="1.2"/>
<rect x="280" y="266" width="30" height="30" fill="#cfcfcf" stroke="#111111" stroke-width="1.2"/>
<rect x="280" y="236" width="30" height="30" fill="none" stroke="#111111" stroke-width="1.2"/>
<rect x="280" y="206" width="30" height="30" fill="#cfcfcf" stroke="#111111" stroke-width="1.2"/>
<rect x="280" y="176" width="30" height="30" fill="none" stroke="#111111" stroke-width="1.2"/>
<rect x="280" y="146" width="30" height="30" fill="#cfcfcf" stroke="#111111" stroke-width="1.2"/>
<rect x="280" y="116" width="30" height="30" fill="none" stroke="#111111" stroke-width="1.2"/>
<rect x="280" y="86" width="30" height="30" fill="#cfcfcf" stroke="#111111" stroke-width="1.2"/>
<rect x="280" y="56" width="30" height="30" fill="none" stroke="#111111" stroke-width="1.2"/>
<rect x="310" y="266" width="30" height="30" fill="none" stroke="#111111" stroke-width="1.2"/>
<rect x="310" y="236" width="30" height="30" fill="#cfcfcf" stroke="#111111" stroke-width="1.2"/>
<rect x="310" y="206" width="30" height="30" fill="none" stroke="#111111" stroke-width="1.2"/>
<rect x="310" y="176" width="30" height="30" fill="#cfcfcf" stroke="#111111" stroke-width="1.2"/>
<rect x="310" y="146" width="30" height="30" fill="none" stroke="#111111" stroke-width="1.2"/>
<rect x="310" y="116" width="30" height="30" fill="#cfcfcf" stroke="#111111" stroke-width="1.2"/>
<rect x="310" y="86" width="30" height="30" fill="none" stroke="#111111" stroke-width="1.2"/>
<rect x="310" y="56" width="30" height="30" fill="#cfcfcf" stroke="#111111" stroke-width="1.2"/>
<rect x="340" y="266" width="30" height="30" fill="#cfcfcf" stroke="#111111" stroke-width="1.2"/>
<rect x="340" y="236" width="30" height="30" fill="none" stroke="#111111" stroke-width="1.2"/>
<rect x="340" y="206" width="30" height="30" fill="#cfcfcf" stroke="#111111" stroke-width="1.2"/>
<rect x="340" y="176" width="30" height="30" fill="none" stroke="#111111" stroke-width="1.2"/>
<rect x="340" y="146" width="30" height="30" fill="#cfcfcf" stroke="#111111" stroke-width="1.2"/>
<rect x="340" y="116" width="30" height="30" fill="none" stroke="#111111" stroke-width="1.2"/>
<rect x="340" y="86" width="30" height="30" fill="#cfcfcf" stroke="#111111" stroke-width="1.2"/>
<rect x="340" y="56" width="30" height="30" fill="none" stroke="#111111" stroke-width="1.2"/>
<rect x="370" y="266" width="30" height="30" fill="none" stroke="#111111" stroke-width="1.2"/>
<rect x="370" y="236" width="30" height="30" fill="#cfcfcf" stroke="#111111" stroke-width="1.2"/>
<rect x="370" y="206" width="30" height="30" fill="none" stroke="#111111" stroke-width="1.2"/>
<rect x="370" y="176" width="30" height="30" fill="#cfcfcf" stroke="#111111" stroke-width="1.2"/>
<rect x="370" y="146" width="30" height="30" fill="none" stroke="#111111" stroke-width="1.2"/>
<rect x="370" y="116" width="30" height="30" fill="#cfcfcf" stroke="#111111" stroke-width="1.2"/>
<rect x="370" y="86" width="30" height="30" fill="none" stroke="#111111" stroke-width="1.2"/>
<rect x="370" y="56" width="30" height="30" fill="#cfcfcf" stroke="#111111" stroke-width="1.2"/>
<rect x="160" y="56" width="240" height="240" fill="none" stroke="#111111" stroke-width="2.6"/>
<rect x="162.4" y="268.4" width="55.2" height="25.2" rx="5" fill="none" stroke="#111111" stroke-width="3"/>
<rect x="222.4" y="268.4" width="55.2" height="25.2" rx="5" fill="none" stroke="#111111" stroke-width="3"/>
<rect x="282.4" y="268.4" width="55.2" height="25.2" rx="5" fill="none" stroke="#111111" stroke-width="3"/>
<rect x="342.4" y="268.4" width="55.2" height="25.2" rx="5" fill="none" stroke="#111111" stroke-width="3"/>
<rect x="162.4" y="238.4" width="55.2" height="25.2" rx="5" fill="none" stroke="#111111" stroke-width="3"/>
<rect x="222.4" y="238.4" width="55.2" height="25.2" rx="5" fill="none" stroke="#111111" stroke-width="3"/>
<rect x="282.4" y="238.4" width="55.2" height="25.2" rx="5" fill="none" stroke="#111111" stroke-width="3"/>
<rect x="342.4" y="238.4" width="55.2" height="25.2" rx="5" fill="none" stroke="#111111" stroke-width="3"/>
<rect x="162.4" y="208.4" width="55.2" height="25.2" rx="5" fill="none" stroke="#111111" stroke-width="3"/>
<rect x="222.4" y="208.4" width="55.2" height="25.2" rx="5" fill="none" stroke="#111111" stroke-width="3"/>
<rect x="282.4" y="208.4" width="55.2" height="25.2" rx="5" fill="none" stroke="#111111" stroke-width="3"/>
<rect x="342.4" y="208.4" width="55.2" height="25.2" rx="5" fill="none" stroke="#111111" stroke-width="3"/>
<rect x="162.4" y="178.4" width="55.2" height="25.2" rx="5" fill="none" stroke="#111111" stroke-width="3"/>
<rect x="222.4" y="178.4" width="55.2" height="25.2" rx="5" fill="none" stroke="#111111" stroke-width="3"/>
<rect x="282.4" y="178.4" width="55.2" height="25.2" rx="5" fill="none" stroke="#111111" stroke-width="3"/>
<rect x="342.4" y="178.4" width="55.2" height="25.2" rx="5" fill="none" stroke="#111111" stroke-width="3"/>
<rect x="162.4" y="148.4" width="55.2" height="25.2" rx="5" fill="none" stroke="#111111" stroke-width="3"/>
<rect x="222.4" y="148.4" width="55.2" height="25.2" rx="5" fill="none" stroke="#111111" stroke-width="3"/>
<rect x="282.4" y="148.4" width="55.2" height="25.2" rx="5" fill="none" stroke="#111111" stroke-width="3"/>
<rect x="342.4" y="148.4" width="55.2" height="25.2" rx="5" fill="none" stroke="#111111" stroke-width="3"/>
<rect x="162.4" y="118.4" width="55.2" height="25.2" rx="5" fill="none" stroke="#111111" stroke-width="3"/>
<rect x="222.4" y="118.4" width="55.2" height="25.2" rx="5" fill="none" stroke="#111111" stroke-width="3"/>
<rect x="282.4" y="118.4" width="55.2" height="25.2" rx="5" fill="none" stroke="#111111" stroke-width="3"/>
<rect x="342.4" y="118.4" width="55.2" height="25.2" rx="5" fill="none" stroke="#111111" stroke-width="3"/>
<rect x="162.4" y="88.4" width="55.2" height="25.2" rx="5" fill="none" stroke="#111111" stroke-width="3"/>
<rect x="222.4" y="88.4" width="55.2" height="25.2" rx="5" fill="none" stroke="#111111" stroke-width="3"/>
<rect x="282.4" y="88.4" width="55.2" height="25.2" rx="5" fill="none" stroke="#111111" stroke-width="3"/>
<rect x="342.4" y="88.4" width="55.2" height="25.2" rx="5" fill="none" stroke="#111111" stroke-width="3"/>
<rect x="162.4" y="58.4" width="55.2" height="25.2" rx="5" fill="none" stroke="#111111" stroke-width="3"/>
<rect x="222.4" y="58.4" width="55.2" height="25.2" rx="5" fill="none" stroke="#111111" stroke-width="3"/>
<rect x="282.4" y="58.4" width="55.2" height="25.2" rx="5" fill="none" stroke="#111111" stroke-width="3"/>
<rect x="342.4" y="58.4" width="55.2" height="25.2" rx="5" fill="none" stroke="#111111" stroke-width="3"/>
<text x="280" y="330" text-anchor="middle" font-family="Pretendard, 'NanumSquareRound', sans-serif" font-size="21" fill="#111111"><tspan x="280" dy="0">한 줄에 4개씩 × 8줄 = 32개 — ‘된다’ 증명 끝</tspan><tspan x="280" dy="26">(다른 방법도 1,300만 가지쯤 있지만, 하나면 충분)</tspan></text>
</svg>
