<svg xmlns="http://www.w3.org/2000/svg" viewBox="0 0 460 396" width="460" height="396">
<rect x="110" y="236" width="30" height="30" fill="none" stroke="#111111" stroke-width="1.2"/>
<rect x="110" y="206" width="30" height="30" fill="#cfcfcf" stroke="#111111" stroke-width="1.2"/>
<rect x="110" y="176" width="30" height="30" fill="none" stroke="#111111" stroke-width="1.2"/>
<rect x="110" y="146" width="30" height="30" fill="#cfcfcf" stroke="#111111" stroke-width="1.2"/>
<rect x="110" y="116" width="30" height="30" fill="none" stroke="#111111" stroke-width="1.2"/>
<rect x="110" y="86" width="30" height="30" fill="#cfcfcf" stroke="#111111" stroke-width="1.2"/>
<rect x="110" y="56" width="30" height="30" fill="none" stroke="#111111" stroke-width="1.2"/>
<rect x="140" y="266" width="30" height="30" fill="none" stroke="#111111" stroke-width="1.2"/>
<rect x="140" y="236" width="30" height="30" fill="#cfcfcf" stroke="#111111" stroke-width="1.2"/>
<rect x="140" y="206" width="30" height="30" fill="none" stroke="#111111" stroke-width="1.2"/>
<rect x="140" y="176" width="30" height="30" fill="#cfcfcf" stroke="#111111" stroke-width="1.2"/>
<rect x="140" y="146" width="30" height="30" fill="none" stroke="#111111" stroke-width="1.2"/>
<rect x="140" y="116" width="30" height="30" fill="#cfcfcf" stroke="#111111" stroke-width="1.2"/>
<rect x="140" y="86" width="30" height="30" fill="none" stroke="#111111" stroke-width="1.2"/>
<rect x="140" y="56" width="30" height="30" fill="#cfcfcf" stroke="#111111" stroke-width="1.2"/>
<rect x="170" y="266" width="30" height="30" fill="#cfcfcf" stroke="#111111" stroke-width="1.2"/>
<rect x="170" y="236" width="30" height="30" fill="none" stroke="#111111" stroke-width="1.2"/>
<rect x="170" y="206" width="30" height="30" fill="#cfcfcf" stroke="#111111" stroke-width="1.2"/>
<rect x="170" y="176" width="30" height="30" fill="none" stroke="#111111" stroke-width="1.2"/>
<rect x="170" y="146" width="30" height="30" fill="#cfcfcf" stroke="#111111" stroke-width="1.2"/>
<rect x="170" y="116" width="30" height="30" fill="none" stroke="#111111" stroke-width="1.2"/>
<rect x="170" y="86" width="30" height="30" fill="#cfcfcf" stroke="#111111" stroke-width="1.2"/>
<rect x="170" y="56" width="30" height="30" fill="none" stroke="#111111" stroke-width="1.2"/>
<rect x="200" y="266" width="30" height="30" fill="none" stroke="#111111" stroke-width="1.2"/>
<rect x="200" y="236" width="30" height="30" fill="#cfcfcf" stroke="#111111" stroke-width="1.2"/>
<rect x="200" y="206" width="30" height="30" fill="none" stroke="#111111" stroke-width="1.2"/>
<rect x="200" y="176" width="30" height="30" fill="#cfcfcf" stroke="#111111" stroke-width="1.2"/>
<rect x="200" y="146" width="30" height="30" fill="none" stroke="#111111" stroke-width="1.2"/>
<rect x="200" y="116" width="30" height="30" fill="#cfcfcf" stroke="#111111" stroke-width="1.2"/>
<rect x="200" y="86" width="30" height="30" fill="none" stroke="#111111" stroke-width="1.2"/>
<rect x="200" y="56" width="30" height="30" fill="#cfcfcf" stroke="#111111" stroke-width="1.2"/>
<rect x="230" y="266" width="30" height="30" fill="#cfcfcf" stroke="#111111" stroke-width="1.2"/>
<rect x="230" y="236" width="30" height="30" fill="none" stroke="#111111" stroke-width="1.2"/>
<rect x="230" y="206" width="30" height="30" fill="#cfcfcf" stroke="#111111" stroke-width="1.2"/>
<rect x="230" y="176" width="30" height="30" fill="none" stroke="#111111" stroke-width="1.2"/>
<rect x="230" y="146" width="30" height="30" fill="#cfcfcf" stroke="#111111" stroke-width="1.2"/>
<rect x="230" y="116" width="30" height="30" fill="none" stroke="#111111" stroke-width="1.2"/>
<rect x="230" y="86" width="30" height="30" fill="#cfcfcf" stroke="#111111" stroke-width="1.2"/>
<rect x="230" y="56" width="30" height="30" fill="none" stroke="#111111" stroke-width="1.2"/>
<rect x="260" y="266" width="30" height="30" fill="none" stroke="#111111" stroke-width="1.2"/>
<rect x="260" y="236" width="30" height="30" fill="#cfcfcf" stroke="#111111" stroke-width="1.2"/>
<rect x="260" y="206" width="30" height="30" fill="none" stroke="#111111" stroke-width="1.2"/>
<rect x="260" y="176" width="30" height="30" fill="#cfcfcf" stroke="#111111" stroke-width="1.2"/>
<rect x="260" y="146" width="30" height="30" fill="none" stroke="#111111" stroke-width="1.2"/>
<rect x="260" y="116" width="30" height="30" fill="#cfcfcf" stroke="#111111" stroke-width="1.2"/>
<rect x="260" y="86" width="30" height="30" fill="none" stroke="#111111" stroke-width="1.2"/>
<rect x="260" y="56" width="30" height="30" fill="#cfcfcf" stroke="#111111" stroke-width="1.2"/>
<rect x="290" y="266" width="30" height="30" fill="#cfcfcf" stroke="#111111" stroke-width="1.2"/>
<rect x="290" y="236" width="30" height="30" fill="none" stroke="#111111" stroke-width="1.2"/>
<rect x="290" y="206" width="30" height="30" fill="#cfcfcf" stroke="#111111" stroke-width="1.2"/>
<rect x="290" y="176" width="30" height="30" fill="none" stroke="#111111" stroke-width="1.2"/>
<rect x="290" y="146" width="30" height="30" fill="#cfcfcf" stroke="#111111" stroke-width="1.2"/>
<rect x="290" y="116" width="30" height="30" fill="none" stroke="#111111" stroke-width="1.2"/>
<rect x="290" y="86" width="30" height="30" fill="#cfcfcf" stroke="#111111" stroke-width="1.2"/>
<rect x="290" y="56" width="30" height="30" fill="none" stroke="#111111" stroke-width="1.2"/>
<rect x="320" y="266" width="30" height="30" fill="none" stroke="#111111" stroke-width="1.2"/>
<rect x="320" y="236" width="30" height="30" fill="#cfcfcf" stroke="#111111" stroke-width="1.2"/>
<rect x="320" y="206" width="30" height="30" fill="none" stroke="#111111" stroke-width="1.2"/>
<rect x="320" y="176" width="30" height="30" fill="#cfcfcf" stroke="#111111" stroke-width="1.2"/>
<rect x="320" y="146" width="30" height="30" fill="none" stroke="#111111" stroke-width="1.2"/>
<rect x="320" y="116" width="30" height="30" fill="#cfcfcf" stroke="#111111" stroke-width="1.2"/>
<rect x="320" y="86" width="30" height="30" fill="none" stroke="#111111" stroke-width="1.2"/>
<polygon points="140,296 350,296 350,86 320,86 320,56 110,56 110,266 140,266" fill="none" stroke="#111111" stroke-width="2.6"/>
<rect x="323.0" y="59.0" width="24.0" height="24.0" fill="none" stroke="#111111" stroke-width="1.8" stroke-dasharray="4.5 3.5"/>
<line x1="328.4" y1="64.4" x2="341.6" y2="77.6" stroke="#111111" stroke-width="1.8"/>
<line x1="328.4" y1="77.6" x2="341.6" y2="64.4" stroke="#111111" stroke-width="1.8"/>
<rect x="113.0" y="269.0" width="24.0" height="24.0" fill="none" stroke="#111111" stroke-width="1.8" stroke-dasharray="4.5 3.5"/>
<line x1="118.4" y1="274.4" x2="131.6" y2="287.6" stroke="#111111" stroke-width="1.8"/>
<line x1="118.4" y1="287.6" x2="131.6" y2="274.4" stroke="#111111" stroke-width="1.8"/>
<rect x="142.4" y="268.4" width="55.2" height="25.2" rx="5" fill="none" stroke="#111111" stroke-width="2.6"/>
<rect x="202.4" y="268.4" width="55.2" height="25.2" rx="5" fill="none" stroke="#111111" stroke-width="2.6"/>
<rect x="262.4" y="268.4" width="55.2" height="25.2" rx="5" fill="none" stroke="#111111" stroke-width="2.6"/>
<rect x="322.4" y="238.4" width="25.2" height="55.2" rx="5" fill="none" stroke="#111111" stroke-width="2.6"/>
<rect x="262.4" y="238.4" width="55.2" height="25.2" rx="5" fill="none" stroke="#111111" stroke-width="2.6"/>
<rect x="202.4" y="238.4" width="55.2" height="25.2" rx="5" fill="none" stroke="#111111" stroke-width="2.6"/>
<rect x="142.4" y="238.4" width="55.2" height="25.2" rx="5" fill="none" stroke="#111111" stroke-width="2.6"/>
<rect x="142.4" y="208.4" width="55.2" height="25.2" rx="5" fill="none" stroke="#111111" stroke-width="2.6"/>
<rect x="202.4" y="208.4" width="55.2" height="25.2" rx="5" fill="none" stroke="#111111" stroke-width="2.6"/>
<rect x="262.4" y="208.4" width="55.2" height="25.2" rx="5" fill="none" stroke="#111111" stroke-width="2.6"/>
<rect x="322.4" y="178.4" width="25.2" height="55.2" rx="5" fill="none" stroke="#111111" stroke-width="2.6"/>
<rect x="262.4" y="178.4" width="55.2" height="25.2" rx="5" fill="none" stroke="#111111" stroke-width="2.6"/>
<rect x="202.4" y="178.4" width="55.2" height="25.2" rx="5" fill="none" stroke="#111111" stroke-width="2.6"/>
<rect x="142.4" y="178.4" width="55.2" height="25.2" rx="5" fill="none" stroke="#111111" stroke-width="2.6"/>
<rect x="142.4" y="148.4" width="55.2" height="25.2" rx="5" fill="none" stroke="#111111" stroke-width="2.6"/>
<rect x="202.4" y="148.4" width="55.2" height="25.2" rx="5" fill="none" stroke="#111111" stroke-width="2.6"/>
<rect x="262.4" y="148.4" width="55.2" height="25.2" rx="5" fill="none" stroke="#111111" stroke-width="2.6"/>
<rect x="322.4" y="118.4" width="25.2" height="55.2" rx="5" fill="none" stroke="#111111" stroke-width="2.6"/>
<rect x="262.4" y="118.4" width="55.2" height="25.2" rx="5" fill="none" stroke="#111111" stroke-width="2.6"/>
<rect x="202.4" y="118.4" width="55.2" height="25.2" rx="5" fill="none" stroke="#111111" stroke-width="2.6"/>
<rect x="142.4" y="118.4" width="55.2" height="25.2" rx="5" fill="none" stroke="#111111" stroke-width="2.6"/>
<rect x="142.4" y="88.4" width="55.2" height="25.2" rx="5" fill="none" stroke="#111111" stroke-width="2.6"/>
<rect x="202.4" y="88.4" width="55.2" height="25.2" rx="5" fill="none" stroke="#111111" stroke-width="2.6"/>
<rect x="262.4" y="88.4" width="55.2" height="25.2" rx="5" fill="none" stroke="#111111" stroke-width="2.6"/>
<rect x="262.4" y="58.4" width="55.2" height="25.2" rx="5" fill="none" stroke="#111111" stroke-width="2.6"/>
<rect x="202.4" y="58.4" width="55.2" height="25.2" rx="5" fill="none" stroke="#111111" stroke-width="2.6"/>
<rect x="142.4" y="58.4" width="55.2" height="25.2" rx="5" fill="none" stroke="#111111" stroke-width="2.6"/>
<rect x="112.4" y="58.4" width="25.2" height="55.2" rx="5" fill="none" stroke="#111111" stroke-width="2.6"/>
<rect x="112.4" y="118.4" width="25.2" height="55.2" rx="5" fill="none" stroke="#111111" stroke-width="2.6"/>
<rect x="112.4" y="178.4" width="25.2" height="55.2" rx="5" fill="none" stroke="#111111" stroke-width="2.6"/>
<rect x="323.0" y="89.0" width="24.0" height="24.0" rx="4" fill="none" stroke="#111111" stroke-width="3" stroke-dasharray="6 4"/>
<text x="335.0" y="107.6" text-anchor="middle" font-family="Pretendard, 'NanumSquareRound', sans-serif" font-size="20" fill="#111111">?</text>
<rect x="113.0" y="239.0" width="24.0" height="24.0" rx="4" fill="none" stroke="#111111" stroke-width="3" stroke-dasharray="6 4"/>
<text x="125.0" y="257.6" text-anchor="middle" font-family="Pretendard, 'NanumSquareRound', sans-serif" font-size="20" fill="#111111">?</text>
<text x="230" y="330" text-anchor="middle" font-family="Pretendard, 'NanumSquareRound', sans-serif" font-size="21" fill="#111111"><tspan x="230" dy="0">30개까지는 놓인다 — 그런데 늘 두 칸이,</tspan><tspan x="230" dy="26">그것도 멀리 떨어진 채 남는다. 백 번을 해도.</tspan></text>
</svg>
