<svg xmlns="http://www.w3.org/2000/svg" viewBox="0 0 950 396" width="950" height="396">
<rect x="20" y="148" width="316" height="100" rx="8" fill="#3d3d3d" stroke="#111111" stroke-width="4"/>
<text x="46.0" y="198.0" text-anchor="middle" font-family="Pretendard, 'NanumSquareRound', sans-serif" font-size="22" fill="#ffffff">1</text>
<text x="75.5" y="198.0" text-anchor="middle" font-family="Pretendard, 'NanumSquareRound', sans-serif" font-size="22" fill="#ffffff">2</text>
<text x="105.0" y="198.0" text-anchor="middle" font-family="Pretendard, 'NanumSquareRound', sans-serif" font-size="22" fill="#ffffff">3</text>
<text x="134.5" y="198.0" text-anchor="middle" font-family="Pretendard, 'NanumSquareRound', sans-serif" font-size="22" fill="#ffffff">4</text>
<text x="164.0" y="198.0" text-anchor="middle" font-family="Pretendard, 'NanumSquareRound', sans-serif" font-size="22" fill="#ffffff">5</text>
<text x="193.5" y="198.0" text-anchor="middle" font-family="Pretendard, 'NanumSquareRound', sans-serif" font-size="22" fill="#ffffff">6</text>
<text x="223.0" y="198.0" text-anchor="middle" font-family="Pretendard, 'NanumSquareRound', sans-serif" font-size="22" fill="#ffffff">7</text>
<text x="252.5" y="198.0" text-anchor="middle" font-family="Pretendard, 'NanumSquareRound', sans-serif" font-size="22" fill="#ffffff">8</text>
<text x="282.0" y="198.0" text-anchor="middle" font-family="Pretendard, 'NanumSquareRound', sans-serif" font-size="22" fill="#ffffff">9</text>
<text x="311.5" y="198.0" text-anchor="middle" font-family="Pretendard, 'NanumSquareRound', sans-serif" font-size="22" fill="#ffffff">10</text>
<path d="M 46.0 216.0 Q 60.75 236.0 75.5 216.0" fill="none" stroke="#ffffff" stroke-width="2"/>
<path d="M 105.0 216.0 Q 119.75 236.0 134.5 216.0" fill="none" stroke="#ffffff" stroke-width="2"/>
<path d="M 164.0 216.0 Q 178.75 236.0 193.5 216.0" fill="none" stroke="#ffffff" stroke-width="2"/>
<path d="M 223.0 216.0 Q 237.75 236.0 252.5 216.0" fill="none" stroke="#ffffff" stroke-width="2"/>
<path d="M 282.0 216.0 Q 296.75 236.0 311.5 216.0" fill="none" stroke="#ffffff" stroke-width="2"/>
<line x1="344" y1="206.0" x2="388" y2="206.0" stroke="#111111" stroke-width="3"/>
<polygon points="398,206.0 385,199.5 385,212.5" fill="#111111"/>
<text x="371.0" y="194.0" text-anchor="middle" font-family="Pretendard, 'NanumSquareRound', sans-serif" font-size="17" fill="#111111">5번</text>
<rect x="410" y="148" width="168" height="100" rx="8" fill="#3d3d3d" stroke="#111111" stroke-width="4"/>
<text x="438" y="206.0" text-anchor="middle" font-family="Pretendard, 'NanumSquareRound', sans-serif" font-size="22" fill="#ffffff">1</text>
<text x="466" y="206.0" text-anchor="middle" font-family="Pretendard, 'NanumSquareRound', sans-serif" font-size="22" fill="#ffffff">1</text>
<text x="494" y="206.0" text-anchor="middle" font-family="Pretendard, 'NanumSquareRound', sans-serif" font-size="22" fill="#ffffff">1</text>
<text x="522" y="206.0" text-anchor="middle" font-family="Pretendard, 'NanumSquareRound', sans-serif" font-size="22" fill="#ffffff">1</text>
<text x="550" y="206.0" text-anchor="middle" font-family="Pretendard, 'NanumSquareRound', sans-serif" font-size="22" fill="#ffffff">1</text>
<line x1="586" y1="206.0" x2="630" y2="206.0" stroke="#111111" stroke-width="3"/>
<polygon points="640,206.0 627,199.5 627,212.5" fill="#111111"/>
<text x="613.0" y="194.0" text-anchor="middle" font-family="Pretendard, 'NanumSquareRound', sans-serif" font-size="17" fill="#111111">2번</text>
<rect x="652" y="148" width="118" height="100" rx="8" fill="#3d3d3d" stroke="#111111" stroke-width="4"/>
<text x="679" y="206.0" text-anchor="middle" font-family="Pretendard, 'NanumSquareRound', sans-serif" font-size="22" fill="#ffffff">1</text>
<text x="711" y="206.0" text-anchor="middle" font-family="Pretendard, 'NanumSquareRound', sans-serif" font-size="22" fill="#ffffff">0</text>
<text x="743" y="206.0" text-anchor="middle" font-family="Pretendard, 'NanumSquareRound', sans-serif" font-size="22" fill="#ffffff">0</text>
<line x1="778" y1="206.0" x2="822" y2="206.0" stroke="#111111" stroke-width="3"/>
<polygon points="832,206.0 819,199.5 819,212.5" fill="#111111"/>
<text x="805.0" y="194.0" text-anchor="middle" font-family="Pretendard, 'NanumSquareRound', sans-serif" font-size="17" fill="#111111">2번</text>
<rect x="844" y="148" width="84" height="100" rx="8" fill="#3d3d3d" stroke="#111111" stroke-width="4"/>
<text x="886.0" y="206.0" text-anchor="middle" font-family="Pretendard, 'NanumSquareRound', sans-serif" font-size="26" fill="#ffffff">1</text>
<circle cx="886.0" cy="197.0" r="22" fill="none" stroke="#ffffff" stroke-width="2.2"/>
<text x="475" y="330" text-anchor="middle" font-family="Pretendard, 'NanumSquareRound', sans-serif" font-size="21" fill="#111111"><tspan x="475" dy="0">이웃끼리 다섯 쌍을 빼면 1이 다섯 개 → 둘씩 지워 0으로 → 마지막 (1−0)=1</tspan><tspan x="475" dy="26">다섯 번 + 두 번 + 두 번 = 아홉 번 — ‘된다’는 이 실행 한 판이 증명</tspan></text>
</svg>
