<svg xmlns="http://www.w3.org/2000/svg" viewBox="0 0 660 396" width="660" height="396">
<rect x="24" y="263" width="33" height="33" fill="#111111" stroke="#111111" stroke-width="1.2"/>
<rect x="24" y="230" width="33" height="33" fill="none" stroke="#111111" stroke-width="1.2"/>
<rect x="24" y="197" width="33" height="33" fill="#111111" stroke="#111111" stroke-width="1.2"/>
<rect x="24" y="164" width="33" height="33" fill="none" stroke="#111111" stroke-width="1.2"/>
<rect x="24" y="131" width="33" height="33" fill="#111111" stroke="#111111" stroke-width="1.2"/>
<rect x="24" y="98" width="33" height="33" fill="none" stroke="#111111" stroke-width="1.2"/>
<rect x="24" y="65" width="33" height="33" fill="#111111" stroke="#111111" stroke-width="1.2"/>
<rect x="24" y="32" width="33" height="33" fill="none" stroke="#111111" stroke-width="1.2"/>
<rect x="57" y="263" width="33" height="33" fill="none" stroke="#111111" stroke-width="1.2"/>
<rect x="57" y="230" width="33" height="33" fill="#111111" stroke="#111111" stroke-width="1.2"/>
<rect x="57" y="197" width="33" height="33" fill="none" stroke="#111111" stroke-width="1.2"/>
<rect x="57" y="164" width="33" height="33" fill="#111111" stroke="#111111" stroke-width="1.2"/>
<rect x="57" y="131" width="33" height="33" fill="none" stroke="#111111" stroke-width="1.2"/>
<rect x="57" y="98" width="33" height="33" fill="#111111" stroke="#111111" stroke-width="1.2"/>
<rect x="57" y="65" width="33" height="33" fill="none" stroke="#111111" stroke-width="1.2"/>
<rect x="57" y="32" width="33" height="33" fill="#111111" stroke="#111111" stroke-width="1.2"/>
<rect x="90" y="263" width="33" height="33" fill="#111111" stroke="#111111" stroke-width="1.2"/>
<rect x="90" y="230" width="33" height="33" fill="none" stroke="#111111" stroke-width="1.2"/>
<rect x="90" y="197" width="33" height="33" fill="#111111" stroke="#111111" stroke-width="1.2"/>
<rect x="90" y="164" width="33" height="33" fill="none" stroke="#111111" stroke-width="1.2"/>
<rect x="90" y="131" width="33" height="33" fill="#111111" stroke="#111111" stroke-width="1.2"/>
<rect x="90" y="98" width="33" height="33" fill="none" stroke="#111111" stroke-width="1.2"/>
<rect x="90" y="65" width="33" height="33" fill="#111111" stroke="#111111" stroke-width="1.2"/>
<rect x="90" y="32" width="33" height="33" fill="none" stroke="#111111" stroke-width="1.2"/>
<rect x="123" y="263" width="33" height="33" fill="none" stroke="#111111" stroke-width="1.2"/>
<rect x="123" y="230" width="33" height="33" fill="#111111" stroke="#111111" stroke-width="1.2"/>
<rect x="123" y="197" width="33" height="33" fill="none" stroke="#111111" stroke-width="1.2"/>
<rect x="123" y="164" width="33" height="33" fill="#111111" stroke="#111111" stroke-width="1.2"/>
<rect x="123" y="131" width="33" height="33" fill="none" stroke="#111111" stroke-width="1.2"/>
<rect x="123" y="98" width="33" height="33" fill="#111111" stroke="#111111" stroke-width="1.2"/>
<rect x="123" y="65" width="33" height="33" fill="none" stroke="#111111" stroke-width="1.2"/>
<rect x="123" y="32" width="33" height="33" fill="#111111" stroke="#111111" stroke-width="1.2"/>
<rect x="156" y="263" width="33" height="33" fill="#111111" stroke="#111111" stroke-width="1.2"/>
<rect x="156" y="230" width="33" height="33" fill="none" stroke="#111111" stroke-width="1.2"/>
<rect x="156" y="197" width="33" height="33" fill="#111111" stroke="#111111" stroke-width="1.2"/>
<rect x="156" y="164" width="33" height="33" fill="none" stroke="#111111" stroke-width="1.2"/>
<rect x="156" y="131" width="33" height="33" fill="#111111" stroke="#111111" stroke-width="1.2"/>
<rect x="156" y="98" width="33" height="33" fill="none" stroke="#111111" stroke-width="1.2"/>
<rect x="156" y="65" width="33" height="33" fill="#111111" stroke="#111111" stroke-width="1.2"/>
<rect x="156" y="32" width="33" height="33" fill="none" stroke="#111111" stroke-width="1.2"/>
<rect x="189" y="263" width="33" height="33" fill="none" stroke="#111111" stroke-width="1.2"/>
<rect x="189" y="230" width="33" height="33" fill="#111111" stroke="#111111" stroke-width="1.2"/>
<rect x="189" y="197" width="33" height="33" fill="none" stroke="#111111" stroke-width="1.2"/>
<rect x="189" y="164" width="33" height="33" fill="#111111" stroke="#111111" stroke-width="1.2"/>
<rect x="189" y="131" width="33" height="33" fill="none" stroke="#111111" stroke-width="1.2"/>
<rect x="189" y="98" width="33" height="33" fill="#111111" stroke="#111111" stroke-width="1.2"/>
<rect x="189" y="65" width="33" height="33" fill="none" stroke="#111111" stroke-width="1.2"/>
<rect x="189" y="32" width="33" height="33" fill="#111111" stroke="#111111" stroke-width="1.2"/>
<rect x="222" y="263" width="33" height="33" fill="#111111" stroke="#111111" stroke-width="1.2"/>
<rect x="222" y="230" width="33" height="33" fill="none" stroke="#111111" stroke-width="1.2"/>
<rect x="222" y="197" width="33" height="33" fill="#111111" stroke="#111111" stroke-width="1.2"/>
<rect x="222" y="164" width="33" height="33" fill="none" stroke="#111111" stroke-width="1.2"/>
<rect x="222" y="131" width="33" height="33" fill="#111111" stroke="#111111" stroke-width="1.2"/>
<rect x="222" y="98" width="33" height="33" fill="none" stroke="#111111" stroke-width="1.2"/>
<rect x="222" y="65" width="33" height="33" fill="#111111" stroke="#111111" stroke-width="1.2"/>
<rect x="222" y="32" width="33" height="33" fill="none" stroke="#111111" stroke-width="1.2"/>
<rect x="255" y="263" width="33" height="33" fill="none" stroke="#111111" stroke-width="1.2"/>
<rect x="255" y="230" width="33" height="33" fill="#111111" stroke="#111111" stroke-width="1.2"/>
<rect x="255" y="197" width="33" height="33" fill="none" stroke="#111111" stroke-width="1.2"/>
<rect x="255" y="164" width="33" height="33" fill="#111111" stroke="#111111" stroke-width="1.2"/>
<rect x="255" y="131" width="33" height="33" fill="none" stroke="#111111" stroke-width="1.2"/>
<rect x="255" y="98" width="33" height="33" fill="#111111" stroke="#111111" stroke-width="1.2"/>
<rect x="255" y="65" width="33" height="33" fill="none" stroke="#111111" stroke-width="1.2"/>
<rect x="255" y="32" width="33" height="33" fill="#111111" stroke="#111111" stroke-width="1.2"/>
<rect x="24" y="32" width="264" height="264" fill="none" stroke="#111111" stroke-width="2.6"/>
<text x="156" y="330" text-anchor="middle" font-family="Pretendard, 'NanumSquareRound', sans-serif" font-size="21" fill="#111111"><tspan x="156" dy="0">8×8 체스판 — 64칸</tspan></text>
<rect x="388" y="250" width="46" height="46" fill="#111111" stroke="#111111" stroke-width="1.2"/>
<rect x="388" y="204" width="46" height="46" fill="none" stroke="#111111" stroke-width="1.2"/>
<rect x="388" y="158" width="46" height="46" fill="#111111" stroke="#111111" stroke-width="1.2"/>
<rect x="388" y="112" width="46" height="46" fill="none" stroke="#111111" stroke-width="1.2"/>
<rect x="434" y="250" width="46" height="46" fill="none" stroke="#111111" stroke-width="1.2"/>
<rect x="434" y="204" width="46" height="46" fill="#111111" stroke="#111111" stroke-width="1.2"/>
<rect x="434" y="158" width="46" height="46" fill="none" stroke="#111111" stroke-width="1.2"/>
<rect x="434" y="112" width="46" height="46" fill="#111111" stroke="#111111" stroke-width="1.2"/>
<rect x="480" y="250" width="46" height="46" fill="#111111" stroke="#111111" stroke-width="1.2"/>
<rect x="480" y="204" width="46" height="46" fill="none" stroke="#111111" stroke-width="1.2"/>
<rect x="480" y="158" width="46" height="46" fill="#111111" stroke="#111111" stroke-width="1.2"/>
<rect x="480" y="112" width="46" height="46" fill="none" stroke="#111111" stroke-width="1.2"/>
<rect x="526" y="250" width="46" height="46" fill="none" stroke="#111111" stroke-width="1.2"/>
<rect x="526" y="204" width="46" height="46" fill="#111111" stroke="#111111" stroke-width="1.2"/>
<rect x="526" y="158" width="46" height="46" fill="none" stroke="#111111" stroke-width="1.2"/>
<rect x="526" y="112" width="46" height="46" fill="#111111" stroke="#111111" stroke-width="1.2"/>
<rect x="388" y="112" width="184" height="184" fill="none" stroke="#111111" stroke-width="2.6"/>
<rect x="391.68" y="161.68" width="84.64" height="38.64" rx="5" fill="none" stroke="#ffffff" stroke-width="7.5"/>
<rect x="391.68" y="161.68" width="84.64" height="38.64" rx="5" fill="none" stroke="#111111" stroke-width="4"/>
<rect x="483.68" y="207.68" width="38.64" height="84.64" rx="5" fill="none" stroke="#ffffff" stroke-width="7.5"/>
<rect x="483.68" y="207.68" width="38.64" height="84.64" rx="5" fill="none" stroke="#111111" stroke-width="4"/>
<text x="480" y="330" text-anchor="middle" font-family="Pretendard, 'NanumSquareRound', sans-serif" font-size="21" fill="#111111"><tspan x="480" dy="0">도미노 = 이웃 두 칸을 덮는 1×2 타일</tspan><tspan x="480" dy="26">(가로·세로 모두) — 겹침·빈틈 없이</tspan></text>
</svg>
