<svg xmlns="http://www.w3.org/2000/svg" viewBox="0 0 880 396" width="880" height="396">
<rect x="24" y="263" width="33" height="33" fill="#111111"/>
<rect x="24" y="197" width="33" height="33" fill="#111111"/>
<rect x="24" y="131" width="33" height="33" fill="#111111"/>
<rect x="24" y="65" width="33" height="33" fill="#111111"/>
<rect x="57" y="230" width="33" height="33" fill="#111111"/>
<rect x="57" y="164" width="33" height="33" fill="#111111"/>
<rect x="57" y="98" width="33" height="33" fill="#111111"/>
<rect x="57" y="32" width="33" height="33" fill="#111111"/>
<rect x="90" y="263" width="33" height="33" fill="#111111"/>
<rect x="90" y="197" width="33" height="33" fill="#111111"/>
<rect x="90" y="131" width="33" height="33" fill="#111111"/>
<rect x="90" y="65" width="33" height="33" fill="#111111"/>
<rect x="123" y="230" width="33" height="33" fill="#111111"/>
<rect x="123" y="164" width="33" height="33" fill="#111111"/>
<rect x="123" y="98" width="33" height="33" fill="#111111"/>
<rect x="123" y="32" width="33" height="33" fill="#111111"/>
<rect x="156" y="263" width="33" height="33" fill="#111111"/>
<rect x="156" y="197" width="33" height="33" fill="#111111"/>
<rect x="156" y="131" width="33" height="33" fill="#111111"/>
<rect x="156" y="65" width="33" height="33" fill="#111111"/>
<rect x="189" y="230" width="33" height="33" fill="#111111"/>
<rect x="189" y="164" width="33" height="33" fill="#111111"/>
<rect x="189" y="98" width="33" height="33" fill="#111111"/>
<rect x="189" y="32" width="33" height="33" fill="#111111"/>
<rect x="222" y="263" width="33" height="33" fill="#111111"/>
<rect x="222" y="197" width="33" height="33" fill="#111111"/>
<rect x="222" y="131" width="33" height="33" fill="#111111"/>
<rect x="222" y="65" width="33" height="33" fill="#111111"/>
<rect x="255" y="230" width="33" height="33" fill="#111111"/>
<rect x="255" y="164" width="33" height="33" fill="#111111"/>
<rect x="255" y="98" width="33" height="33" fill="#111111"/>
<rect x="255" y="32" width="33" height="33" fill="#111111"/>
<line x1="24" y1="32" x2="24" y2="296" stroke="#111111" stroke-width="1.5"/>
<line x1="24" y1="32" x2="288" y2="32" stroke="#111111" stroke-width="1.5"/>
<line x1="57" y1="32" x2="57" y2="296" stroke="#111111" stroke-width="1.5"/>
<line x1="24" y1="65" x2="288" y2="65" stroke="#111111" stroke-width="1.5"/>
<line x1="90" y1="32" x2="90" y2="296" stroke="#111111" stroke-width="1.5"/>
<line x1="24" y1="98" x2="288" y2="98" stroke="#111111" stroke-width="1.5"/>
<line x1="123" y1="32" x2="123" y2="296" stroke="#111111" stroke-width="1.5"/>
<line x1="24" y1="131" x2="288" y2="131" stroke="#111111" stroke-width="1.5"/>
<line x1="156" y1="32" x2="156" y2="296" stroke="#111111" stroke-width="1.5"/>
<line x1="24" y1="164" x2="288" y2="164" stroke="#111111" stroke-width="1.5"/>
<line x1="189" y1="32" x2="189" y2="296" stroke="#111111" stroke-width="1.5"/>
<line x1="24" y1="197" x2="288" y2="197" stroke="#111111" stroke-width="1.5"/>
<line x1="222" y1="32" x2="222" y2="296" stroke="#111111" stroke-width="1.5"/>
<line x1="24" y1="230" x2="288" y2="230" stroke="#111111" stroke-width="1.5"/>
<line x1="255" y1="32" x2="255" y2="296" stroke="#111111" stroke-width="1.5"/>
<line x1="24" y1="263" x2="288" y2="263" stroke="#111111" stroke-width="1.5"/>
<line x1="288" y1="32" x2="288" y2="296" stroke="#111111" stroke-width="1.5"/>
<line x1="24" y1="296" x2="288" y2="296" stroke="#111111" stroke-width="1.5"/>
<rect x="24" y="32" width="264" height="264" fill="none" stroke="#111111" stroke-width="3"/>
<text x="156" y="330" text-anchor="middle" font-family="Pretendard, 'NanumSquareRound', sans-serif" font-size="21" fill="#111111"><tspan x="156" dy="0">8×8 — 검과 흰, 어느 쪽이 많을까?</tspan></text>
<rect x="356" y="263" width="33" height="33" fill="#111111"/>
<rect x="356" y="197" width="33" height="33" fill="#111111"/>
<rect x="356" y="131" width="33" height="33" fill="#111111"/>
<rect x="356" y="65" width="33" height="33" fill="#111111"/>
<rect x="389" y="230" width="33" height="33" fill="#111111"/>
<rect x="389" y="164" width="33" height="33" fill="#111111"/>
<rect x="389" y="98" width="33" height="33" fill="#111111"/>
<rect x="422" y="263" width="33" height="33" fill="#111111"/>
<rect x="422" y="197" width="33" height="33" fill="#111111"/>
<rect x="422" y="131" width="33" height="33" fill="#111111"/>
<rect x="422" y="65" width="33" height="33" fill="#111111"/>
<rect x="455" y="230" width="33" height="33" fill="#111111"/>
<rect x="455" y="164" width="33" height="33" fill="#111111"/>
<rect x="455" y="98" width="33" height="33" fill="#111111"/>
<rect x="488" y="263" width="33" height="33" fill="#111111"/>
<rect x="488" y="197" width="33" height="33" fill="#111111"/>
<rect x="488" y="131" width="33" height="33" fill="#111111"/>
<rect x="488" y="65" width="33" height="33" fill="#111111"/>
<rect x="521" y="230" width="33" height="33" fill="#111111"/>
<rect x="521" y="164" width="33" height="33" fill="#111111"/>
<rect x="521" y="98" width="33" height="33" fill="#111111"/>
<rect x="554" y="263" width="33" height="33" fill="#111111"/>
<rect x="554" y="197" width="33" height="33" fill="#111111"/>
<rect x="554" y="131" width="33" height="33" fill="#111111"/>
<rect x="554" y="65" width="33" height="33" fill="#111111"/>
<line x1="356" y1="65" x2="356" y2="296" stroke="#111111" stroke-width="1.5"/>
<line x1="356" y1="65" x2="587" y2="65" stroke="#111111" stroke-width="1.5"/>
<line x1="389" y1="65" x2="389" y2="296" stroke="#111111" stroke-width="1.5"/>
<line x1="356" y1="98" x2="587" y2="98" stroke="#111111" stroke-width="1.5"/>
<line x1="422" y1="65" x2="422" y2="296" stroke="#111111" stroke-width="1.5"/>
<line x1="356" y1="131" x2="587" y2="131" stroke="#111111" stroke-width="1.5"/>
<line x1="455" y1="65" x2="455" y2="296" stroke="#111111" stroke-width="1.5"/>
<line x1="356" y1="164" x2="587" y2="164" stroke="#111111" stroke-width="1.5"/>
<line x1="488" y1="65" x2="488" y2="296" stroke="#111111" stroke-width="1.5"/>
<line x1="356" y1="197" x2="587" y2="197" stroke="#111111" stroke-width="1.5"/>
<line x1="521" y1="65" x2="521" y2="296" stroke="#111111" stroke-width="1.5"/>
<line x1="356" y1="230" x2="587" y2="230" stroke="#111111" stroke-width="1.5"/>
<line x1="554" y1="65" x2="554" y2="296" stroke="#111111" stroke-width="1.5"/>
<line x1="356" y1="263" x2="587" y2="263" stroke="#111111" stroke-width="1.5"/>
<line x1="587" y1="65" x2="587" y2="296" stroke="#111111" stroke-width="1.5"/>
<line x1="356" y1="296" x2="587" y2="296" stroke="#111111" stroke-width="1.5"/>
<rect x="356" y="65" width="231" height="231" fill="none" stroke="#111111" stroke-width="3"/>
<text x="471.5" y="330" text-anchor="middle" font-family="Pretendard, 'NanumSquareRound', sans-serif" font-size="21" fill="#111111"><tspan x="471.5" dy="0">7×7이라면?</tspan></text>
<rect x="668" y="250" width="46" height="46" fill="#111111"/>
<rect x="668" y="158" width="46" height="46" fill="#111111"/>
<rect x="714" y="204" width="46" height="46" fill="#111111"/>
<rect x="714" y="112" width="46" height="46" fill="#111111"/>
<rect x="760" y="250" width="46" height="46" fill="#111111"/>
<rect x="760" y="158" width="46" height="46" fill="#111111"/>
<rect x="806" y="204" width="46" height="46" fill="#111111"/>
<rect x="806" y="112" width="46" height="46" fill="#111111"/>
<line x1="668" y1="112" x2="668" y2="296" stroke="#111111" stroke-width="1.5"/>
<line x1="668" y1="112" x2="852" y2="112" stroke="#111111" stroke-width="1.5"/>
<line x1="714" y1="112" x2="714" y2="296" stroke="#111111" stroke-width="1.5"/>
<line x1="668" y1="158" x2="852" y2="158" stroke="#111111" stroke-width="1.5"/>
<line x1="760" y1="112" x2="760" y2="296" stroke="#111111" stroke-width="1.5"/>
<line x1="668" y1="204" x2="852" y2="204" stroke="#111111" stroke-width="1.5"/>
<line x1="806" y1="112" x2="806" y2="296" stroke="#111111" stroke-width="1.5"/>
<line x1="668" y1="250" x2="852" y2="250" stroke="#111111" stroke-width="1.5"/>
<line x1="852" y1="112" x2="852" y2="296" stroke="#111111" stroke-width="1.5"/>
<line x1="668" y1="296" x2="852" y2="296" stroke="#111111" stroke-width="1.5"/>
<rect x="668" y="112" width="184" height="184" fill="none" stroke="#111111" stroke-width="3"/>
<rect x="669.38" y="159.38" width="89.24" height="43.239999999999995" rx="6" fill="none" stroke="#ffffff" stroke-width="7.5"/>
<rect x="669.38" y="159.38" width="89.24" height="43.239999999999995" rx="6" fill="none" stroke="#111111" stroke-width="4"/>
<rect x="761.38" y="205.38" width="43.239999999999995" height="89.24" rx="6" fill="none" stroke="#ffffff" stroke-width="7.5"/>
<rect x="761.38" y="205.38" width="43.239999999999995" height="89.24" rx="6" fill="none" stroke="#111111" stroke-width="4"/>
<text x="760" y="330" text-anchor="middle" font-family="Pretendard, 'NanumSquareRound', sans-serif" font-size="21" fill="#111111"><tspan x="760" dy="0">이웃 두 칸의 색은</tspan><tspan x="760" dy="26">어떤 관계?</tspan></text>
</svg>
