<svg xmlns="http://www.w3.org/2000/svg" viewBox="0 0 700 372" width="700" height="372">
<circle cx="66" cy="86" r="20" fill="#ffffff" stroke="#111111" stroke-width="2.4"/>
<circle cx="117" cy="86" r="20" fill="#ffffff" stroke="#111111" stroke-width="2.4"/>
<circle cx="168" cy="86" r="20" fill="#ffffff" stroke="#111111" stroke-width="2.4"/>
<circle cx="219" cy="86" r="20" fill="#ffffff" stroke="#111111" stroke-width="2.4"/>
<circle cx="66" cy="137" r="20" fill="#ffffff" stroke="#111111" stroke-width="2.4"/>
<circle cx="117" cy="137" r="20" fill="#ffffff" stroke="#111111" stroke-width="2.4"/>
<circle cx="168" cy="137" r="20" fill="#ffffff" stroke="#111111" stroke-width="2.4"/>
<circle cx="219" cy="137" r="20" fill="#ffffff" stroke="#111111" stroke-width="2.4"/>
<circle cx="66" cy="188" r="20" fill="#ffffff" stroke="#111111" stroke-width="2.4"/>
<circle cx="117" cy="188" r="20" fill="#ffffff" stroke="#111111" stroke-width="2.4"/>
<circle cx="168" cy="188" r="20" fill="#ffffff" stroke="#111111" stroke-width="2.4"/>
<circle cx="219" cy="188" r="20" fill="#ffffff" stroke="#111111" stroke-width="2.4"/>
<text x="148" y="316" text-anchor="middle" font-family="Pretendard, 'NanumSquareRound', sans-serif" font-size="21" fill="#111111"><tspan x="148" dy="0">12개 중 가짜 1개 -</tspan><tspan x="148" dy="26">무거운지 가벼운지도 모른다</tspan></text>
<line x1="520" y1="112" x2="520" y2="166.6" stroke="#111111" stroke-width="4.2"/>
<line x1="484.3" y1="166.6" x2="555.7" y2="166.6" stroke="#111111" stroke-width="4.2"/>
<line x1="441.25" y1="112" x2="598.75" y2="112" stroke="#111111" stroke-width="4.2"/>
<line x1="441.25" y1="112" x2="441.25" y2="101.5" stroke="#111111" stroke-width="2.94"/>
<path d="M 409.75 93.1 Q 441.25 110.95 472.75 93.1" fill="#ffffff" stroke="#111111" stroke-width="3.1500000000000004"/>
<line x1="598.75" y1="112" x2="598.75" y2="101.5" stroke="#111111" stroke-width="2.94"/>
<path d="M 567.25 93.1 Q 598.75 110.95 630.25 93.1" fill="#ffffff" stroke="#111111" stroke-width="3.1500000000000004"/>
<text x="520" y="250" text-anchor="middle" font-family="Pretendard, 'NanumSquareRound', sans-serif" font-size="28" font-weight="700" fill="#111111">× 3번?</text>
<text x="520" y="316" text-anchor="middle" font-family="Pretendard, 'NanumSquareRound', sans-serif" font-size="21" fill="#111111"><tspan x="520" dy="0">전략을 짜기 전에 -</tspan><tspan x="520" dy="26">먼저 ‘경우의 수’를 세어 보라</tspan></text>
</svg>
