<svg xmlns="http://www.w3.org/2000/svg" viewBox="0 0 854 348" width="854" height="348">
<g transform="translate(30,0)"><text x="91.0" y="40" text-anchor="middle" font-family="Pretendard, 'NanumSquareRound', sans-serif" font-size="34" font-weight="800" fill="#111111">A</text><rect x="0" y="56" width="182" height="210" rx="12" fill="#ffffff" stroke="#111111" stroke-width="2.8"/><rect x="16" y="92" width="30" height="34" rx="6" fill="none" stroke="#111111" stroke-width="1.6" stroke-dasharray="5 4" opacity="0.55"/><rect x="54" y="92" width="30" height="34" rx="6" fill="none" stroke="#111111" stroke-width="1.6" stroke-dasharray="5 4" opacity="0.55"/><rect x="92" y="92" width="30" height="34" rx="6" fill="none" stroke="#111111" stroke-width="1.6" stroke-dasharray="5 4" opacity="0.55"/><rect x="130" y="92" width="30" height="34" rx="6" fill="none" stroke="#111111" stroke-width="1.6" stroke-dasharray="5 4" opacity="0.55"/><rect x="16" y="154" width="30" height="34" rx="6" fill="none" stroke="#111111" stroke-width="1.6" stroke-dasharray="5 4" opacity="0.55"/><rect x="54" y="154" width="30" height="34" rx="6" fill="none" stroke="#111111" stroke-width="1.6" stroke-dasharray="5 4" opacity="0.55"/><rect x="92" y="154" width="30" height="34" rx="6" fill="none" stroke="#111111" stroke-width="1.6" stroke-dasharray="5 4" opacity="0.55"/><rect x="130" y="154" width="30" height="34" rx="6" fill="none" stroke="#111111" stroke-width="1.6" stroke-dasharray="5 4" opacity="0.55"/><text x="91.0" y="238" text-anchor="middle" font-family="Pretendard, 'NanumSquareRound', sans-serif" font-size="19" fill="#111111" opacity="0.75">어떤 수들을 적을까?</text></g>
<g transform="translate(234,0)"><text x="91.0" y="40" text-anchor="middle" font-family="Pretendard, 'NanumSquareRound', sans-serif" font-size="34" font-weight="800" fill="#111111">B</text><rect x="0" y="56" width="182" height="210" rx="12" fill="#ffffff" stroke="#111111" stroke-width="2.8"/><rect x="16" y="92" width="30" height="34" rx="6" fill="none" stroke="#111111" stroke-width="1.6" stroke-dasharray="5 4" opacity="0.55"/><rect x="54" y="92" width="30" height="34" rx="6" fill="none" stroke="#111111" stroke-width="1.6" stroke-dasharray="5 4" opacity="0.55"/><rect x="92" y="92" width="30" height="34" rx="6" fill="none" stroke="#111111" stroke-width="1.6" stroke-dasharray="5 4" opacity="0.55"/><rect x="130" y="92" width="30" height="34" rx="6" fill="none" stroke="#111111" stroke-width="1.6" stroke-dasharray="5 4" opacity="0.55"/><rect x="16" y="154" width="30" height="34" rx="6" fill="none" stroke="#111111" stroke-width="1.6" stroke-dasharray="5 4" opacity="0.55"/><rect x="54" y="154" width="30" height="34" rx="6" fill="none" stroke="#111111" stroke-width="1.6" stroke-dasharray="5 4" opacity="0.55"/><rect x="92" y="154" width="30" height="34" rx="6" fill="none" stroke="#111111" stroke-width="1.6" stroke-dasharray="5 4" opacity="0.55"/><rect x="130" y="154" width="30" height="34" rx="6" fill="none" stroke="#111111" stroke-width="1.6" stroke-dasharray="5 4" opacity="0.55"/><text x="91.0" y="238" text-anchor="middle" font-family="Pretendard, 'NanumSquareRound', sans-serif" font-size="19" fill="#111111" opacity="0.75">어떤 수들을 적을까?</text></g>
<g transform="translate(438,0)"><text x="91.0" y="40" text-anchor="middle" font-family="Pretendard, 'NanumSquareRound', sans-serif" font-size="34" font-weight="800" fill="#111111">C</text><rect x="0" y="56" width="182" height="210" rx="12" fill="#ffffff" stroke="#111111" stroke-width="2.8"/><rect x="16" y="92" width="30" height="34" rx="6" fill="none" stroke="#111111" stroke-width="1.6" stroke-dasharray="5 4" opacity="0.55"/><rect x="54" y="92" width="30" height="34" rx="6" fill="none" stroke="#111111" stroke-width="1.6" stroke-dasharray="5 4" opacity="0.55"/><rect x="92" y="92" width="30" height="34" rx="6" fill="none" stroke="#111111" stroke-width="1.6" stroke-dasharray="5 4" opacity="0.55"/><rect x="130" y="92" width="30" height="34" rx="6" fill="none" stroke="#111111" stroke-width="1.6" stroke-dasharray="5 4" opacity="0.55"/><rect x="16" y="154" width="30" height="34" rx="6" fill="none" stroke="#111111" stroke-width="1.6" stroke-dasharray="5 4" opacity="0.55"/><rect x="54" y="154" width="30" height="34" rx="6" fill="none" stroke="#111111" stroke-width="1.6" stroke-dasharray="5 4" opacity="0.55"/><rect x="92" y="154" width="30" height="34" rx="6" fill="none" stroke="#111111" stroke-width="1.6" stroke-dasharray="5 4" opacity="0.55"/><rect x="130" y="154" width="30" height="34" rx="6" fill="none" stroke="#111111" stroke-width="1.6" stroke-dasharray="5 4" opacity="0.55"/><text x="91.0" y="238" text-anchor="middle" font-family="Pretendard, 'NanumSquareRound', sans-serif" font-size="19" fill="#111111" opacity="0.75">어떤 수들을 적을까?</text></g>
<g transform="translate(642,0)"><text x="91.0" y="40" text-anchor="middle" font-family="Pretendard, 'NanumSquareRound', sans-serif" font-size="34" font-weight="800" fill="#111111">D</text><rect x="0" y="56" width="182" height="210" rx="12" fill="#ffffff" stroke="#111111" stroke-width="2.8"/><rect x="16" y="92" width="30" height="34" rx="6" fill="none" stroke="#111111" stroke-width="1.6" stroke-dasharray="5 4" opacity="0.55"/><rect x="54" y="92" width="30" height="34" rx="6" fill="none" stroke="#111111" stroke-width="1.6" stroke-dasharray="5 4" opacity="0.55"/><rect x="92" y="92" width="30" height="34" rx="6" fill="none" stroke="#111111" stroke-width="1.6" stroke-dasharray="5 4" opacity="0.55"/><rect x="130" y="92" width="30" height="34" rx="6" fill="none" stroke="#111111" stroke-width="1.6" stroke-dasharray="5 4" opacity="0.55"/><rect x="16" y="154" width="30" height="34" rx="6" fill="none" stroke="#111111" stroke-width="1.6" stroke-dasharray="5 4" opacity="0.55"/><rect x="54" y="154" width="30" height="34" rx="6" fill="none" stroke="#111111" stroke-width="1.6" stroke-dasharray="5 4" opacity="0.55"/><rect x="92" y="154" width="30" height="34" rx="6" fill="none" stroke="#111111" stroke-width="1.6" stroke-dasharray="5 4" opacity="0.55"/><rect x="130" y="154" width="30" height="34" rx="6" fill="none" stroke="#111111" stroke-width="1.6" stroke-dasharray="5 4" opacity="0.55"/><text x="91.0" y="238" text-anchor="middle" font-family="Pretendard, 'NanumSquareRound', sans-serif" font-size="19" fill="#111111" opacity="0.75">어떤 수들을 적을까?</text></g>
<text x="427.0" y="322" text-anchor="middle" font-family="Pretendard, 'NanumSquareRound', sans-serif" font-size="22" fill="#111111"><tspan x="427.0" dy="0">1~15의 수를 맞히는 카드 4장 - 각 칸에 들어갈 수를 직접 정하라</tspan></text>
</svg>
