<svg xmlns="http://www.w3.org/2000/svg" viewBox="0 0 800 250" width="800" height="250">
<rect x="30" y="90" width="40" height="40" rx="6" fill="#ffffff" stroke="#111111" stroke-width="2"/>
<text x="50.0" y="116.4" text-anchor="middle" font-family="Pretendard, 'NanumSquareRound', sans-serif" font-size="17" fill="#111111">1</text>
<rect x="76" y="90" width="40" height="40" rx="6" fill="#ffffff" stroke="#111111" stroke-width="2"/>
<text x="96.0" y="116.4" text-anchor="middle" font-family="Pretendard, 'NanumSquareRound', sans-serif" font-size="17" fill="#111111">2</text>
<rect x="122" y="90" width="40" height="40" rx="6" fill="#ffffff" stroke="#111111" stroke-width="2"/>
<text x="142.0" y="116.4" text-anchor="middle" font-family="Pretendard, 'NanumSquareRound', sans-serif" font-size="17" fill="#111111">3</text>
<rect x="168" y="90" width="40" height="40" rx="6" fill="#ffffff" stroke="#111111" stroke-width="2"/>
<text x="188.0" y="116.4" text-anchor="middle" font-family="Pretendard, 'NanumSquareRound', sans-serif" font-size="17" fill="#111111">4</text>
<rect x="214" y="90" width="40" height="40" rx="6" fill="#ffffff" stroke="#111111" stroke-width="2"/>
<text x="234.0" y="116.4" text-anchor="middle" font-family="Pretendard, 'NanumSquareRound', sans-serif" font-size="17" fill="#111111">5</text>
<rect x="260" y="90" width="40" height="40" rx="6" fill="#ffffff" stroke="#111111" stroke-width="2"/>
<text x="280.0" y="116.4" text-anchor="middle" font-family="Pretendard, 'NanumSquareRound', sans-serif" font-size="17" fill="#111111">6</text>
<rect x="306" y="90" width="40" height="40" rx="6" fill="#ffffff" stroke="#111111" stroke-width="2"/>
<text x="326.0" y="116.4" text-anchor="middle" font-family="Pretendard, 'NanumSquareRound', sans-serif" font-size="17" fill="#111111">7</text>
<rect x="352" y="90" width="40" height="40" rx="6" fill="#ffffff" stroke="#111111" stroke-width="2"/>
<text x="372.0" y="116.4" text-anchor="middle" font-family="Pretendard, 'NanumSquareRound', sans-serif" font-size="17" fill="#111111">8</text>
<rect x="398" y="90" width="40" height="40" rx="6" fill="#ffffff" stroke="#111111" stroke-width="2"/>
<text x="418.0" y="116.4" text-anchor="middle" font-family="Pretendard, 'NanumSquareRound', sans-serif" font-size="17" fill="#111111">9</text>
<rect x="444" y="90" width="40" height="40" rx="6" fill="#ffffff" stroke="#111111" stroke-width="2"/>
<text x="464.0" y="116.4" text-anchor="middle" font-family="Pretendard, 'NanumSquareRound', sans-serif" font-size="17" fill="#111111">10</text>
<rect x="490" y="90" width="40" height="40" rx="6" fill="#ffffff" stroke="#111111" stroke-width="2"/>
<text x="510.0" y="116.4" text-anchor="middle" font-family="Pretendard, 'NanumSquareRound', sans-serif" font-size="17" fill="#111111">11</text>
<rect x="536" y="90" width="40" height="40" rx="6" fill="#ffffff" stroke="#111111" stroke-width="2"/>
<text x="556.0" y="116.4" text-anchor="middle" font-family="Pretendard, 'NanumSquareRound', sans-serif" font-size="17" fill="#111111">12</text>
<rect x="582" y="90" width="40" height="40" rx="6" fill="#ffffff" stroke="#111111" stroke-width="2"/>
<text x="602.0" y="116.4" text-anchor="middle" font-family="Pretendard, 'NanumSquareRound', sans-serif" font-size="17" fill="#111111">13</text>
<rect x="628" y="90" width="40" height="40" rx="6" fill="#ffffff" stroke="#111111" stroke-width="2"/>
<text x="648.0" y="116.4" text-anchor="middle" font-family="Pretendard, 'NanumSquareRound', sans-serif" font-size="17" fill="#111111">14</text>
<rect x="674" y="90" width="40" height="40" rx="6" fill="#ffffff" stroke="#111111" stroke-width="2"/>
<text x="694.0" y="116.4" text-anchor="middle" font-family="Pretendard, 'NanumSquareRound', sans-serif" font-size="17" fill="#111111">15</text>
<rect x="720" y="90" width="40" height="40" rx="6" fill="#ffffff" stroke="#111111" stroke-width="2"/>
<text x="740.0" y="116.4" text-anchor="middle" font-family="Pretendard, 'NanumSquareRound', sans-serif" font-size="17" fill="#111111">16</text>
<text x="395.0" y="60" text-anchor="middle" font-family="Pretendard, 'NanumSquareRound', sans-serif" font-size="26" font-weight="700" fill="#111111">후보 16개</text>
<text x="395.0" y="200" text-anchor="middle" font-family="Pretendard, 'NanumSquareRound', sans-serif" font-size="22" fill="#111111"><tspan x="395.0" dy="0">어떤 대답이 돌아와도 끝까지 통하는 질문 목록 -</tspan><tspan x="395.0" dy="27">몇 번이면 반드시 맞힐 수 있을까?</tspan></text>
</svg>
