<svg xmlns="http://www.w3.org/2000/svg" viewBox="0 0 686 252" width="686" height="252">
<rect x="40" y="90" width="54" height="54" rx="7" fill="#ffffff" stroke="#111111" stroke-width="2.2"/>
<g transform="translate(67.0,124.56)"><text x="0" y="0" text-anchor="middle" font-family="Pretendard, 'NanumSquareRound', sans-serif" font-size="21" fill="#111111">1</text></g>
<rect x="102" y="90" width="54" height="54" rx="7" fill="#ffffff" stroke="#111111" stroke-width="2.2"/>
<g transform="translate(129.0,124.56)"><text x="0" y="0" text-anchor="middle" font-family="Pretendard, 'NanumSquareRound', sans-serif" font-size="21" fill="#111111">2</text></g>
<rect x="164" y="90" width="54" height="54" rx="7" fill="#ffffff" stroke="#111111" stroke-width="2.2"/>
<g transform="translate(191.0,124.56)"><text x="0" y="0" text-anchor="middle" font-family="Pretendard, 'NanumSquareRound', sans-serif" font-size="21" fill="#111111">3</text></g>
<rect x="226" y="90" width="54" height="54" rx="7" fill="#ffffff" stroke="#111111" stroke-width="2.2"/>
<g transform="translate(253.0,124.56)"><text x="0" y="0" text-anchor="middle" font-family="Pretendard, 'NanumSquareRound', sans-serif" font-size="21" fill="#111111">4</text></g>
<rect x="288" y="90" width="54" height="54" rx="7" fill="#ffffff" stroke="#111111" stroke-width="2.2"/>
<g transform="translate(315.0,124.56)"><text x="0" y="0" text-anchor="middle" font-family="Pretendard, 'NanumSquareRound', sans-serif" font-size="21" fill="#111111">5</text></g>
<rect x="350" y="90" width="54" height="54" rx="7" fill="#ffffff" stroke="#111111" stroke-width="2.2"/>
<g transform="translate(377.0,124.56)"><text x="0" y="0" text-anchor="middle" font-family="Pretendard, 'NanumSquareRound', sans-serif" font-size="21" fill="#111111">6</text></g>
<g transform="translate(434,123.47999999999999)"><text x="0" y="0" text-anchor="middle" font-family="Pretendard, 'NanumSquareRound', sans-serif" font-size="30" font-weight="700" fill="#111111">⋯</text></g>
<rect x="464" y="90" width="54" height="54" rx="7" fill="#ffffff" stroke="#111111" stroke-width="2.2"/>
<g transform="translate(491.0,124.56)"><text x="0" y="0" text-anchor="middle" font-family="Pretendard, 'NanumSquareRound', sans-serif" font-size="21" fill="#111111">98</text></g>
<rect x="526" y="90" width="54" height="54" rx="7" fill="#ffffff" stroke="#111111" stroke-width="2.2"/>
<g transform="translate(553.0,124.56)"><text x="0" y="0" text-anchor="middle" font-family="Pretendard, 'NanumSquareRound', sans-serif" font-size="21" fill="#111111">99</text></g>
<rect x="588" y="90" width="54" height="54" rx="7" fill="#ffffff" stroke="#111111" stroke-width="2.2"/>
<g transform="translate(615.0,124.56)"><text x="0" y="0" text-anchor="middle" font-family="Pretendard, 'NanumSquareRound', sans-serif" font-size="21" fill="#111111">100</text></g>
<g transform="translate(341.0,56)"><text x="0" y="0" text-anchor="middle" font-family="Pretendard, 'NanumSquareRound', sans-serif" font-size="27" font-weight="700" fill="#111111">이번엔 후보 100개</text></g>
<g transform="translate(341.0,196)"><text x="0" y="0" text-anchor="middle" font-family="Pretendard, 'NanumSquareRound', sans-serif" font-size="22" fill="#111111"><tspan x="0" dy="0">소문: “7번이면 반드시 맞힐 수 있다” - 정말일까?</tspan><tspan x="0" dy="27">홀수 개가 남으면 어떻게 가르는 게 최선일까?</tspan></text></g>
</svg>
