<svg xmlns="http://www.w3.org/2000/svg" viewBox="0 0 800 356" width="800" height="356">
<rect x="150" y="26" width="400" height="60" rx="14" fill="#ffffff" stroke="#111111" stroke-width="2.6"/>
<polygon points="230.0,86 270.0,86 222.0,101" fill="#ffffff" stroke="#111111" stroke-width="2.2"/>
<text x="350.0" y="64.16" text-anchor="middle" font-family="Pretendard, 'NanumSquareRound', sans-serif" font-size="24" fill="#111111">“네 수가 이 카드에 있니?” × 7</text>
<rect x="34" y="140" width="96" height="128" rx="10" fill="#ffffff" stroke="#111111" stroke-width="2.8"/>
<text x="82.0" y="166" text-anchor="middle" font-family="Pretendard, 'NanumSquareRound', sans-serif" font-size="18" font-weight="700" fill="#111111">카드 1</text>
<path d="M 46 188 q 9 -7 18 0 t 18 0 t 18 0 t 18 0" fill="none" stroke="#111111" stroke-width="1.8" opacity="0.55"/>
<path d="M 46 208 q 9 -7 18 0 t 18 0 t 18 0 t 18 0" fill="none" stroke="#111111" stroke-width="1.8" opacity="0.55"/>
<path d="M 46 228 q 9 -7 18 0 t 18 0 t 18 0 t 18 0" fill="none" stroke="#111111" stroke-width="1.8" opacity="0.55"/>
<path d="M 46 248 q 9 -7 18 0 t 18 0 t 18 0 t 18 0" fill="none" stroke="#111111" stroke-width="1.8" opacity="0.55"/>
<rect x="142" y="140" width="96" height="128" rx="10" fill="#ffffff" stroke="#111111" stroke-width="2.8"/>
<text x="190.0" y="166" text-anchor="middle" font-family="Pretendard, 'NanumSquareRound', sans-serif" font-size="18" font-weight="700" fill="#111111">카드 2</text>
<path d="M 154 188 q 9 -7 18 0 t 18 0 t 18 0 t 18 0" fill="none" stroke="#111111" stroke-width="1.8" opacity="0.55"/>
<path d="M 154 208 q 9 -7 18 0 t 18 0 t 18 0 t 18 0" fill="none" stroke="#111111" stroke-width="1.8" opacity="0.55"/>
<path d="M 154 228 q 9 -7 18 0 t 18 0 t 18 0 t 18 0" fill="none" stroke="#111111" stroke-width="1.8" opacity="0.55"/>
<path d="M 154 248 q 9 -7 18 0 t 18 0 t 18 0 t 18 0" fill="none" stroke="#111111" stroke-width="1.8" opacity="0.55"/>
<rect x="250" y="140" width="96" height="128" rx="10" fill="#ffffff" stroke="#111111" stroke-width="2.8"/>
<text x="298.0" y="166" text-anchor="middle" font-family="Pretendard, 'NanumSquareRound', sans-serif" font-size="18" font-weight="700" fill="#111111">카드 3</text>
<path d="M 262 188 q 9 -7 18 0 t 18 0 t 18 0 t 18 0" fill="none" stroke="#111111" stroke-width="1.8" opacity="0.55"/>
<path d="M 262 208 q 9 -7 18 0 t 18 0 t 18 0 t 18 0" fill="none" stroke="#111111" stroke-width="1.8" opacity="0.55"/>
<path d="M 262 228 q 9 -7 18 0 t 18 0 t 18 0 t 18 0" fill="none" stroke="#111111" stroke-width="1.8" opacity="0.55"/>
<path d="M 262 248 q 9 -7 18 0 t 18 0 t 18 0 t 18 0" fill="none" stroke="#111111" stroke-width="1.8" opacity="0.55"/>
<rect x="358" y="140" width="96" height="128" rx="10" fill="#ffffff" stroke="#111111" stroke-width="2.8"/>
<text x="406.0" y="166" text-anchor="middle" font-family="Pretendard, 'NanumSquareRound', sans-serif" font-size="18" font-weight="700" fill="#111111">카드 4</text>
<path d="M 370 188 q 9 -7 18 0 t 18 0 t 18 0 t 18 0" fill="none" stroke="#111111" stroke-width="1.8" opacity="0.55"/>
<path d="M 370 208 q 9 -7 18 0 t 18 0 t 18 0 t 18 0" fill="none" stroke="#111111" stroke-width="1.8" opacity="0.55"/>
<path d="M 370 228 q 9 -7 18 0 t 18 0 t 18 0 t 18 0" fill="none" stroke="#111111" stroke-width="1.8" opacity="0.55"/>
<path d="M 370 248 q 9 -7 18 0 t 18 0 t 18 0 t 18 0" fill="none" stroke="#111111" stroke-width="1.8" opacity="0.55"/>
<rect x="466" y="140" width="96" height="128" rx="10" fill="#ffffff" stroke="#111111" stroke-width="2.8"/>
<text x="514.0" y="166" text-anchor="middle" font-family="Pretendard, 'NanumSquareRound', sans-serif" font-size="18" font-weight="700" fill="#111111">카드 5</text>
<path d="M 478 188 q 9 -7 18 0 t 18 0 t 18 0 t 18 0" fill="none" stroke="#111111" stroke-width="1.8" opacity="0.55"/>
<path d="M 478 208 q 9 -7 18 0 t 18 0 t 18 0 t 18 0" fill="none" stroke="#111111" stroke-width="1.8" opacity="0.55"/>
<path d="M 478 228 q 9 -7 18 0 t 18 0 t 18 0 t 18 0" fill="none" stroke="#111111" stroke-width="1.8" opacity="0.55"/>
<path d="M 478 248 q 9 -7 18 0 t 18 0 t 18 0 t 18 0" fill="none" stroke="#111111" stroke-width="1.8" opacity="0.55"/>
<rect x="574" y="140" width="96" height="128" rx="10" fill="#ffffff" stroke="#111111" stroke-width="2.8"/>
<text x="622.0" y="166" text-anchor="middle" font-family="Pretendard, 'NanumSquareRound', sans-serif" font-size="18" font-weight="700" fill="#111111">카드 6</text>
<path d="M 586 188 q 9 -7 18 0 t 18 0 t 18 0 t 18 0" fill="none" stroke="#111111" stroke-width="1.8" opacity="0.55"/>
<path d="M 586 208 q 9 -7 18 0 t 18 0 t 18 0 t 18 0" fill="none" stroke="#111111" stroke-width="1.8" opacity="0.55"/>
<path d="M 586 228 q 9 -7 18 0 t 18 0 t 18 0 t 18 0" fill="none" stroke="#111111" stroke-width="1.8" opacity="0.55"/>
<path d="M 586 248 q 9 -7 18 0 t 18 0 t 18 0 t 18 0" fill="none" stroke="#111111" stroke-width="1.8" opacity="0.55"/>
<rect x="682" y="140" width="96" height="128" rx="10" fill="#ffffff" stroke="#111111" stroke-width="2.8"/>
<text x="730.0" y="166" text-anchor="middle" font-family="Pretendard, 'NanumSquareRound', sans-serif" font-size="18" font-weight="700" fill="#111111">카드 7</text>
<path d="M 694 188 q 9 -7 18 0 t 18 0 t 18 0 t 18 0" fill="none" stroke="#111111" stroke-width="1.8" opacity="0.55"/>
<path d="M 694 208 q 9 -7 18 0 t 18 0 t 18 0 t 18 0" fill="none" stroke="#111111" stroke-width="1.8" opacity="0.55"/>
<path d="M 694 228 q 9 -7 18 0 t 18 0 t 18 0 t 18 0" fill="none" stroke="#111111" stroke-width="1.8" opacity="0.55"/>
<path d="M 694 248 q 9 -7 18 0 t 18 0 t 18 0 t 18 0" fill="none" stroke="#111111" stroke-width="1.8" opacity="0.55"/>
<text x="400" y="322" text-anchor="middle" font-family="Pretendard, 'NanumSquareRound', sans-serif" font-size="22" fill="#111111"><tspan x="400" dy="0">카드 7장은 대답을 듣기 전에 미리 인쇄되어 있다 - 무엇이 적혀 있을까?</tspan></text>
</svg>
