<svg xmlns="http://www.w3.org/2000/svg" viewBox="0 0 930 400" width="930" height="400">
<text x="470" y="44" text-anchor="middle" font-family="Pretendard, 'NanumSquareRound', sans-serif" font-size="22" fill="#111111"><tspan x="470" dy="0">대답은 셋 중 하나 - 왼쪽 가벼움 · 균형 · 오른쪽 가벼움</tspan></text>
<rect x="24" y="230" width="160" height="64" rx="10" fill="#ffffff" stroke="#111111" stroke-width="2.8"/>
<text x="104.0" y="270.5" text-anchor="middle" font-family="Pretendard, 'NanumSquareRound', sans-serif" font-size="25" font-weight="700" fill="#111111">후보 9개</text>
<line x1="196" y1="262" x2="329" y2="262" stroke="#111111" stroke-width="3"/>
<polygon points="340,262 326,255 326,269" fill="#111111"/>
<line x1="268" y1="158" x2="268" y2="217.8" stroke="#111111" stroke-width="4.6"/>
<line x1="228.9" y1="217.8" x2="307.1" y2="217.8" stroke="#111111" stroke-width="4.6"/>
<line x1="181.75" y1="158" x2="354.25" y2="158" stroke="#111111" stroke-width="4.6"/>
<line x1="181.75" y1="158" x2="181.75" y2="146.5" stroke="#111111" stroke-width="3.2199999999999998"/>
<path d="M 147.25 137.3 Q 181.75 156.85 216.25 137.3" fill="#ffffff" stroke="#111111" stroke-width="3.4499999999999997"/>
<circle cx="158.8" cy="129.3" r="10" fill="#ffffff" stroke="#111111" stroke-width="2.4"/>
<circle cx="181.8" cy="129.3" r="10" fill="#ffffff" stroke="#111111" stroke-width="2.4"/>
<circle cx="204.8" cy="129.3" r="10" fill="#ffffff" stroke="#111111" stroke-width="2.4"/>
<line x1="354.25" y1="158" x2="354.25" y2="146.5" stroke="#111111" stroke-width="3.2199999999999998"/>
<path d="M 319.75 137.3 Q 354.25 156.85 388.75 137.3" fill="#ffffff" stroke="#111111" stroke-width="3.4499999999999997"/>
<circle cx="331.2" cy="129.3" r="10" fill="#ffffff" stroke="#111111" stroke-width="2.4"/>
<circle cx="354.2" cy="129.3" r="10" fill="#ffffff" stroke="#111111" stroke-width="2.4"/>
<circle cx="377.2" cy="129.3" r="10" fill="#ffffff" stroke="#111111" stroke-width="2.4"/>
<rect x="352" y="230" width="220" height="64" rx="10" fill="#ffffff" stroke="#111111" stroke-width="2.8"/>
<text x="462.0" y="269.48" text-anchor="middle" font-family="Pretendard, 'NanumSquareRound', sans-serif" font-size="22" font-weight="400" fill="#111111">어느 대답이든 3개</text>
<line x1="584" y1="262" x2="717" y2="262" stroke="#111111" stroke-width="3"/>
<polygon points="728,262 714,255 714,269" fill="#111111"/>
<line x1="656" y1="158" x2="656" y2="217.8" stroke="#111111" stroke-width="4.6"/>
<line x1="616.9" y1="217.8" x2="695.1" y2="217.8" stroke="#111111" stroke-width="4.6"/>
<line x1="569.75" y1="158" x2="742.25" y2="158" stroke="#111111" stroke-width="4.6"/>
<line x1="569.75" y1="158" x2="569.75" y2="146.5" stroke="#111111" stroke-width="3.2199999999999998"/>
<path d="M 535.25 137.3 Q 569.75 156.85 604.25 137.3" fill="#ffffff" stroke="#111111" stroke-width="3.4499999999999997"/>
<circle cx="569.8" cy="129.3" r="10" fill="#ffffff" stroke="#111111" stroke-width="2.4"/>
<line x1="742.25" y1="158" x2="742.25" y2="146.5" stroke="#111111" stroke-width="3.2199999999999998"/>
<path d="M 707.75 137.3 Q 742.25 156.85 776.75 137.3" fill="#ffffff" stroke="#111111" stroke-width="3.4499999999999997"/>
<circle cx="742.2" cy="129.3" r="10" fill="#ffffff" stroke="#111111" stroke-width="2.4"/>
<rect x="740" y="230" width="160" height="64" rx="10" fill="#ffffff" stroke="#111111" stroke-width="2.8"/>
<text x="820.0" y="270.5" text-anchor="middle" font-family="Pretendard, 'NanumSquareRound', sans-serif" font-size="25" font-weight="700" fill="#111111">후보 1개!</text>
<text x="470" y="344" text-anchor="middle" font-family="Pretendard, 'NanumSquareRound', sans-serif" font-size="21" fill="#111111"><tspan x="470" dy="0">한 번의 저울질이 후보를 셋으로 가른다 → 9 → 3 → 1, 두 계단이면 끝</tspan><tspan x="470" dy="26">1번이 안 되는 이유: 대답 3가지 < 후보 9개</tspan></text>
</svg>
