<svg xmlns="http://www.w3.org/2000/svg" viewBox="0 0 700 420" width="700" height="420">
<text x="224" y="46" text-anchor="middle" font-family="Pretendard, 'NanumSquareRound', sans-serif" font-size="25" font-weight="700" fill="#111111">두 배의 사다리</text>
<rect x="48" y="76" width="18" height="18" rx="4" fill="#ffffff" stroke="#111111" stroke-width="1.9"/>
<rect x="70" y="76" width="18" height="18" rx="4" fill="#ffffff" stroke="#111111" stroke-width="1.9"/>
<rect x="92" y="76" width="18" height="18" rx="4" fill="#ffffff" stroke="#111111" stroke-width="1.9"/>
<rect x="114" y="76" width="18" height="18" rx="4" fill="#ffffff" stroke="#111111" stroke-width="1.9"/>
<rect x="136" y="76" width="18" height="18" rx="4" fill="#ffffff" stroke="#111111" stroke-width="1.9"/>
<rect x="158" y="76" width="18" height="18" rx="4" fill="#ffffff" stroke="#111111" stroke-width="1.9"/>
<rect x="180" y="76" width="18" height="18" rx="4" fill="#ffffff" stroke="#111111" stroke-width="1.9"/>
<rect x="202" y="76" width="18" height="18" rx="4" fill="#ffffff" stroke="#111111" stroke-width="1.9"/>
<rect x="224" y="76" width="18" height="18" rx="4" fill="#ffffff" stroke="#111111" stroke-width="1.9"/>
<rect x="246" y="76" width="18" height="18" rx="4" fill="#ffffff" stroke="#111111" stroke-width="1.9"/>
<rect x="268" y="76" width="18" height="18" rx="4" fill="#ffffff" stroke="#111111" stroke-width="1.9"/>
<rect x="290" y="76" width="18" height="18" rx="4" fill="#ffffff" stroke="#111111" stroke-width="1.9"/>
<rect x="312" y="76" width="18" height="18" rx="4" fill="#ffffff" stroke="#111111" stroke-width="1.9"/>
<rect x="334" y="76" width="18" height="18" rx="4" fill="#ffffff" stroke="#111111" stroke-width="1.9"/>
<rect x="356" y="76" width="18" height="18" rx="4" fill="#ffffff" stroke="#111111" stroke-width="1.9"/>
<rect x="378" y="76" width="18" height="18" rx="4" fill="#ffffff" stroke="#111111" stroke-width="1.9"/>
<text x="412" y="94" font-family="Pretendard, 'NanumSquareRound', sans-serif" font-size="22" fill="#111111">16개 - 질문 4번이면 충분</text>
<rect x="48" y="130" width="18" height="18" rx="4" fill="#ffffff" stroke="#111111" stroke-width="1.9"/>
<rect x="70" y="130" width="18" height="18" rx="4" fill="#ffffff" stroke="#111111" stroke-width="1.9"/>
<rect x="92" y="130" width="18" height="18" rx="4" fill="#ffffff" stroke="#111111" stroke-width="1.9"/>
<rect x="114" y="130" width="18" height="18" rx="4" fill="#ffffff" stroke="#111111" stroke-width="1.9"/>
<rect x="136" y="130" width="18" height="18" rx="4" fill="#ffffff" stroke="#111111" stroke-width="1.9"/>
<rect x="158" y="130" width="18" height="18" rx="4" fill="#ffffff" stroke="#111111" stroke-width="1.9"/>
<rect x="180" y="130" width="18" height="18" rx="4" fill="#ffffff" stroke="#111111" stroke-width="1.9"/>
<rect x="202" y="130" width="18" height="18" rx="4" fill="#ffffff" stroke="#111111" stroke-width="1.9"/>
<text x="412" y="148" font-family="Pretendard, 'NanumSquareRound', sans-serif" font-size="22" fill="#111111">8개 - 질문 3번이면 충분</text>
<rect x="48" y="184" width="18" height="18" rx="4" fill="#ffffff" stroke="#111111" stroke-width="1.9"/>
<rect x="70" y="184" width="18" height="18" rx="4" fill="#ffffff" stroke="#111111" stroke-width="1.9"/>
<rect x="92" y="184" width="18" height="18" rx="4" fill="#ffffff" stroke="#111111" stroke-width="1.9"/>
<rect x="114" y="184" width="18" height="18" rx="4" fill="#ffffff" stroke="#111111" stroke-width="1.9"/>
<text x="412" y="202" font-family="Pretendard, 'NanumSquareRound', sans-serif" font-size="22" fill="#111111">4개 - 질문 2번이면 충분</text>
<rect x="48" y="238" width="18" height="18" rx="4" fill="#ffffff" stroke="#111111" stroke-width="1.9"/>
<rect x="70" y="238" width="18" height="18" rx="4" fill="#ffffff" stroke="#111111" stroke-width="1.9"/>
<text x="412" y="256" font-family="Pretendard, 'NanumSquareRound', sans-serif" font-size="22" fill="#111111">2개 - 질문 1번이면 충분</text>
<rect x="48" y="292" width="18" height="18" rx="4" fill="#ffffff" stroke="#111111" stroke-width="1.9"/>
<text x="412" y="310" font-family="Pretendard, 'NanumSquareRound', sans-serif" font-size="22" fill="#111111">1개 - 질문 0번이면 충분</text>
<text x="328" y="372" text-anchor="middle" font-family="Pretendard, 'NanumSquareRound', sans-serif" font-size="22" fill="#111111"><tspan x="328" dy="0">한 층 오를 때마다 후보는 두 배가 되지만 질문은 한 번만 는다 -</tspan><tspan x="328" dy="27">후보가 두 배로 늘어도 질문은 딱 하나 더 (후보 ×2 = 질문 +1)</tspan></text>
</svg>
