<svg xmlns="http://www.w3.org/2000/svg" viewBox="0 0 980 268" width="980" height="268">
<rect x="26" y="90" width="84" height="56" rx="10" fill="#ffffff" stroke="#111111" stroke-width="2.8"/>
<text x="68.0" y="125.84" text-anchor="middle" font-family="Pretendard, 'NanumSquareRound', sans-serif" font-size="26" font-weight="700" fill="#111111">100</text>
<line x1="113" y1="118.0" x2="126" y2="118.0" stroke="#111111" stroke-width="2.6"/>
<polygon points="137,118.0 124,111.5 124,124.5" fill="#111111"/>
<rect x="140" y="90" width="84" height="56" rx="10" fill="#ffffff" stroke="#111111" stroke-width="2.8"/>
<text x="182.0" y="125.84" text-anchor="middle" font-family="Pretendard, 'NanumSquareRound', sans-serif" font-size="26" font-weight="400" fill="#111111">50</text>
<line x1="227" y1="118.0" x2="240" y2="118.0" stroke="#111111" stroke-width="2.6"/>
<polygon points="251,118.0 238,111.5 238,124.5" fill="#111111"/>
<rect x="254" y="90" width="84" height="56" rx="10" fill="#ffffff" stroke="#111111" stroke-width="2.8"/>
<text x="296.0" y="125.84" text-anchor="middle" font-family="Pretendard, 'NanumSquareRound', sans-serif" font-size="26" font-weight="400" fill="#111111">25</text>
<line x1="341" y1="118.0" x2="354" y2="118.0" stroke="#111111" stroke-width="2.6"/>
<polygon points="365,118.0 352,111.5 352,124.5" fill="#111111"/>
<rect x="368" y="90" width="84" height="56" rx="10" fill="#ffffff" stroke="#111111" stroke-width="2.8"/>
<text x="410.0" y="125.84" text-anchor="middle" font-family="Pretendard, 'NanumSquareRound', sans-serif" font-size="26" font-weight="400" fill="#111111">13</text>
<line x1="455" y1="118.0" x2="468" y2="118.0" stroke="#111111" stroke-width="2.6"/>
<polygon points="479,118.0 466,111.5 466,124.5" fill="#111111"/>
<rect x="482" y="90" width="84" height="56" rx="10" fill="#ffffff" stroke="#111111" stroke-width="2.8"/>
<text x="524.0" y="125.84" text-anchor="middle" font-family="Pretendard, 'NanumSquareRound', sans-serif" font-size="26" font-weight="400" fill="#111111">7</text>
<line x1="569" y1="118.0" x2="582" y2="118.0" stroke="#111111" stroke-width="2.6"/>
<polygon points="593,118.0 580,111.5 580,124.5" fill="#111111"/>
<rect x="596" y="90" width="84" height="56" rx="10" fill="#ffffff" stroke="#111111" stroke-width="2.8"/>
<text x="638.0" y="125.84" text-anchor="middle" font-family="Pretendard, 'NanumSquareRound', sans-serif" font-size="26" font-weight="400" fill="#111111">4</text>
<line x1="683" y1="118.0" x2="696" y2="118.0" stroke="#111111" stroke-width="2.6"/>
<polygon points="707,118.0 694,111.5 694,124.5" fill="#111111"/>
<rect x="710" y="90" width="84" height="56" rx="10" fill="#ffffff" stroke="#111111" stroke-width="2.8"/>
<text x="752.0" y="125.84" text-anchor="middle" font-family="Pretendard, 'NanumSquareRound', sans-serif" font-size="26" font-weight="400" fill="#111111">2</text>
<line x1="797" y1="118.0" x2="810" y2="118.0" stroke="#111111" stroke-width="2.6"/>
<polygon points="821,118.0 808,111.5 808,124.5" fill="#111111"/>
<rect x="824" y="90" width="84" height="56" rx="10" fill="#ffffff" stroke="#111111" stroke-width="2.8"/>
<text x="866.0" y="125.84" text-anchor="middle" font-family="Pretendard, 'NanumSquareRound', sans-serif" font-size="26" font-weight="700" fill="#111111">1</text>
<text x="490" y="60" text-anchor="middle" font-family="Pretendard, 'NanumSquareRound', sans-serif" font-size="23" fill="#111111"><tspan x="490" dy="0">최악의 경우 후보 수 — 일곱 계단이면 1</tspan></text>
<text x="490" y="210" text-anchor="middle" font-family="Pretendard, 'NanumSquareRound', sans-serif" font-size="23" fill="#111111"><tspan x="490" dy="0">거꾸로 두 배의 사다리: 2 · 4 · 8 · 16 · 32 · 64 · 128</tspan><tspan x="490" dy="28">2⁷ = 128 ≥ 100 — 그래서 7번이면 충분하다</tspan></text>
</svg>
