<svg xmlns="http://www.w3.org/2000/svg" viewBox="0 0 860 340" width="860" height="340">
<circle cx="80" cy="90" r="34" fill="#ffffff" stroke="#111111" stroke-width="2.8"/>
<text x="80" y="100" text-anchor="middle" font-family="Pretendard, 'NanumSquareRound', sans-serif" font-size="28" font-weight="700" fill="#111111">37</text>
<circle cx="80" cy="210" r="34" fill="#ffffff" stroke="#111111" stroke-width="2.8"/>
<text x="80" y="220" text-anchor="middle" font-family="Pretendard, 'NanumSquareRound', sans-serif" font-size="28" font-weight="700" fill="#111111">58</text>
<rect x="220" y="116" width="240" height="66" rx="10" fill="#ffffff" stroke="#111111" stroke-width="2.6"/>
<circle cx="236" cy="149.0" r="4.5" fill="none" stroke="#111111" stroke-width="2"/>
<text x="348.0" y="158.0" text-anchor="middle" font-family="Pretendard, 'NanumSquareRound', sans-serif" font-size="26" fill="#111111">○×○××○</text>
<line x1="122" y1="100" x2="202.0" y2="133.0" stroke="#111111" stroke-width="2.6"/>
<polygon points="214,138 203.4,127.1 198.8,138.2" fill="#111111"/>
<line x1="122" y1="200" x2="202.0" y2="167.0" stroke="#111111" stroke-width="2.6"/>
<polygon points="214,162 198.8,161.8 203.4,172.9" fill="#111111"/>
<text x="340" y="92" text-anchor="middle" font-family="Pretendard, 'NanumSquareRound', sans-serif" font-size="22" font-weight="700" fill="#111111">같은 대답 기록!</text>
<text x="270" y="296" text-anchor="middle" font-family="Pretendard, 'NanumSquareRound', sans-serif" font-size="22" fill="#111111"><tspan x="270" dy="0">기록이 같은 두 수는</tspan><tspan x="270" dy="27">무엇으로도 구분할 수 없다</tspan></text>
<text x="690" y="66" text-anchor="middle" font-family="Pretendard, 'NanumSquareRound', sans-serif" font-size="23" font-weight="700" fill="#111111">○× 여섯 글자 이름표</text>
<rect x="560" y="84" width="260" height="56" rx="10" fill="#ffffff" stroke="#111111" stroke-width="2.6"/>
<circle cx="576" cy="112.0" r="4.5" fill="none" stroke="#111111" stroke-width="2"/>
<text x="698.0" y="121.0" text-anchor="middle" font-family="Pretendard, 'NanumSquareRound', sans-serif" font-size="26" fill="#111111">2⁶ = 64가지</text>
<text x="690" y="188" text-anchor="middle" font-family="Pretendard, 'NanumSquareRound', sans-serif" font-size="23" font-weight="700" fill="#111111">이름이 필요한 수</text>
<circle cx="690" cy="238" r="40" fill="#ffffff" stroke="#111111" stroke-width="2.8"/>
<text x="690" y="248" text-anchor="middle" font-family="Pretendard, 'NanumSquareRound', sans-serif" font-size="28" font-weight="700" fill="#111111">100</text>
<text x="690" y="308" text-anchor="middle" font-family="Pretendard, 'NanumSquareRound', sans-serif" font-size="24" font-weight="700" fill="#111111">100 &gt; 64 → 비둘기집!</text>
</svg>
