<svg xmlns="http://www.w3.org/2000/svg" viewBox="0 0 800 330" width="800" height="330">
<rect x="24" y="90" width="128" height="60" rx="10" fill="#ffffff" stroke="#111111" stroke-width="2.8"/>
<text x="88.0" y="128.5" text-anchor="middle" font-family="Pretendard, 'NanumSquareRound', sans-serif" font-size="25" font-weight="700" fill="#111111">27개</text>
<line x1="160" y1="114.8" x2="233.2" y2="107.8" stroke="#111111" stroke-width="2.4"/>
<polygon points="246,105.7 231.2,102.1 233.2,113.9" fill="#111111"/>
<line x1="160" y1="120.0" x2="233.0" y2="120.0" stroke="#111111" stroke-width="2.4"/>
<polygon points="246,120.0 232.0,114.0 232.0,126.0" fill="#111111"/>
<line x1="160" y1="125.2" x2="233.2" y2="132.2" stroke="#111111" stroke-width="2.4"/>
<polygon points="246,134.3 233.2,126.1 231.2,137.9" fill="#111111"/>
<text x="203.0" y="82" text-anchor="middle" font-family="Pretendard, 'NanumSquareRound', sans-serif" font-size="18" fill="#111111">9 ⚖ 9</text>
<rect x="256" y="90" width="100" height="60" rx="10" fill="#ffffff" stroke="#111111" stroke-width="2.8"/>
<text x="306.0" y="128.5" text-anchor="middle" font-family="Pretendard, 'NanumSquareRound', sans-serif" font-size="25" font-weight="400" fill="#111111">9개</text>
<line x1="364" y1="114.8" x2="437.2" y2="107.8" stroke="#111111" stroke-width="2.4"/>
<polygon points="450,105.7 435.2,102.1 437.2,113.9" fill="#111111"/>
<line x1="364" y1="120.0" x2="437.0" y2="120.0" stroke="#111111" stroke-width="2.4"/>
<polygon points="450,120.0 436.0,114.0 436.0,126.0" fill="#111111"/>
<line x1="364" y1="125.2" x2="437.2" y2="132.2" stroke="#111111" stroke-width="2.4"/>
<polygon points="450,134.3 437.2,126.1 435.2,137.9" fill="#111111"/>
<text x="407.0" y="82" text-anchor="middle" font-family="Pretendard, 'NanumSquareRound', sans-serif" font-size="18" fill="#111111">3 ⚖ 3</text>
<rect x="460" y="90" width="100" height="60" rx="10" fill="#ffffff" stroke="#111111" stroke-width="2.8"/>
<text x="510.0" y="128.5" text-anchor="middle" font-family="Pretendard, 'NanumSquareRound', sans-serif" font-size="25" font-weight="400" fill="#111111">3개</text>
<line x1="568" y1="114.8" x2="641.2" y2="107.8" stroke="#111111" stroke-width="2.4"/>
<polygon points="654,105.7 639.2,102.1 641.2,113.9" fill="#111111"/>
<line x1="568" y1="120.0" x2="641.0" y2="120.0" stroke="#111111" stroke-width="2.4"/>
<polygon points="654,120.0 640.0,114.0 640.0,126.0" fill="#111111"/>
<line x1="568" y1="125.2" x2="641.2" y2="132.2" stroke="#111111" stroke-width="2.4"/>
<polygon points="654,134.3 641.2,126.1 639.2,137.9" fill="#111111"/>
<text x="611.0" y="82" text-anchor="middle" font-family="Pretendard, 'NanumSquareRound', sans-serif" font-size="18" fill="#111111">1 ⚖ 1</text>
<rect x="664" y="90" width="110" height="60" rx="10" fill="#ffffff" stroke="#111111" stroke-width="2.8"/>
<text x="719.0" y="128.5" text-anchor="middle" font-family="Pretendard, 'NanumSquareRound', sans-serif" font-size="25" font-weight="700" fill="#111111">1개!</text>
<text x="400" y="230" text-anchor="middle" font-family="Pretendard, 'NanumSquareRound', sans-serif" font-size="22" fill="#111111"><tspan x="400" dy="0">세 계단이면 끝 — 저울 n번은 후보 3ⁿ개까지 (3의 사다리: 3 · 9 · 27)</tspan></text>
<text x="400" y="292" text-anchor="middle" font-family="Pretendard, 'NanumSquareRound', sans-serif" font-size="22" fill="#111111"><tspan x="400" dy="0">2번의 기록은 3² = 9가지뿐 < 후보 27개 → 2번으론 절대 안 된다</tspan></text>
</svg>
