<svg xmlns="http://www.w3.org/2000/svg" viewBox="0 0 760 350" width="760" height="350">
<rect x="90" y="40" width="280" height="62" rx="14" fill="#ffffff" stroke="#111111" stroke-width="2.6"/>
<polygon points="151.6,102 179.60000000000002,102 146.0,118" fill="#ffffff" stroke="#111111" stroke-width="2.2"/>
<text x="230.0" y="79.16" text-anchor="middle" font-family="Pretendard, 'NanumSquareRound', sans-serif" font-size="24" fill="#111111">“그 수, 홀수니?”</text>
<rect x="470" y="40" width="220" height="62" rx="14" fill="#ffffff" stroke="#111111" stroke-width="2.6"/>
<polygon points="518.4,102 540.4,102 514.0,118" fill="#ffffff" stroke="#111111" stroke-width="2.2"/>
<text x="580.0" y="79.16" text-anchor="middle" font-family="Pretendard, 'NanumSquareRound', sans-serif" font-size="24" fill="#111111">“아니오.”</text>
<rect x="90" y="170" width="560" height="46" rx="23.0" fill="#ffffff" stroke="#111111" stroke-width="2.8"/>
<line x1="146.0" y1="182.88" x2="146.0" y2="203.12" stroke="#111111" stroke-width="1.6"/>
<line x1="202.0" y1="182.88" x2="202.0" y2="203.12" stroke="#111111" stroke-width="1.6"/>
<line x1="258.0" y1="182.88" x2="258.0" y2="203.12" stroke="#111111" stroke-width="1.6"/>
<line x1="314.0" y1="182.88" x2="314.0" y2="203.12" stroke="#111111" stroke-width="1.6"/>
<line x1="370.0" y1="182.88" x2="370.0" y2="203.12" stroke="#111111" stroke-width="1.6"/>
<line x1="426.0" y1="182.88" x2="426.0" y2="203.12" stroke="#111111" stroke-width="1.6"/>
<line x1="482.0" y1="182.88" x2="482.0" y2="203.12" stroke="#111111" stroke-width="1.6"/>
<line x1="538.0" y1="182.88" x2="538.0" y2="203.12" stroke="#111111" stroke-width="1.6"/>
<line x1="594.0" y1="182.88" x2="594.0" y2="203.12" stroke="#111111" stroke-width="1.6"/>
<text x="76" y="202.0" text-anchor="end" font-family="Pretendard, 'NanumSquareRound', sans-serif" font-size="26" font-weight="700" fill="#111111">1</text>
<text x="664" y="202.0" font-family="Pretendard, 'NanumSquareRound', sans-serif" font-size="26" font-weight="700" fill="#111111">100</text>
<text x="370" y="300" text-anchor="middle" font-family="Pretendard, 'NanumSquareRound', sans-serif" font-size="21" fill="#111111"><tspan x="370" dy="0">술래의 수는 1~100 중 하나 · 질문은 ‘예/아니오’로 답할 수 있는 것만</tspan><tspan x="370" dy="26">몇 번이면 확실히 맞힐 수 있을까?</tspan></text>
</svg>
