<svg xmlns="http://www.w3.org/2000/svg" viewBox="0 0 730 380" width="730" height="380">
<rect x="30" y="30" width="300" height="58" rx="12" fill="#ffffff" stroke="#111111" stroke-width="2.8"/>
<text x="180.0" y="66.82" text-anchor="middle" font-family="Pretendard, 'NanumSquareRound', sans-serif" font-size="23" fill="#111111">㉮ “정확히 3이니?”</text>
<line x1="140" y1="92" x2="100.3" y2="140.0" stroke="#111111" stroke-width="2.6"/>
<polygon points="92,150 105.5,143.0 96.3,135.4" fill="#111111"/>
<text x="100.0" y="119.0" text-anchor="middle" font-family="Pretendard, 'NanumSquareRound', sans-serif" font-size="19" fill="#111111">예</text>
<line x1="220" y1="92" x2="259.7" y2="140.0" stroke="#111111" stroke-width="2.6"/>
<polygon points="268,150 263.7,135.4 254.5,143.0" fill="#111111"/>
<text x="266.0" y="119.0" text-anchor="middle" font-family="Pretendard, 'NanumSquareRound', sans-serif" font-size="19" fill="#111111">아니오</text>
<rect x="40" y="162" width="24" height="24" rx="6" fill="#ffffff" stroke="#111111" stroke-width="2.2"/>
<text x="110.0" y="268" text-anchor="middle" font-family="Pretendard, 'NanumSquareRound', sans-serif" font-size="20" fill="#111111" font-weight="400">1개 남음</text>
<rect x="188" y="162" width="24" height="24" rx="6" fill="#ffffff" stroke="#111111" stroke-width="2.2"/>
<rect x="217" y="162" width="24" height="24" rx="6" fill="#ffffff" stroke="#111111" stroke-width="2.2"/>
<rect x="246" y="162" width="24" height="24" rx="6" fill="#ffffff" stroke="#111111" stroke-width="2.2"/>
<rect x="275" y="162" width="24" height="24" rx="6" fill="#ffffff" stroke="#111111" stroke-width="2.2"/>
<rect x="304" y="162" width="24" height="24" rx="6" fill="#ffffff" stroke="#111111" stroke-width="2.2"/>
<rect x="188" y="191" width="24" height="24" rx="6" fill="#ffffff" stroke="#111111" stroke-width="2.2"/>
<rect x="217" y="191" width="24" height="24" rx="6" fill="#ffffff" stroke="#111111" stroke-width="2.2"/>
<rect x="246" y="191" width="24" height="24" rx="6" fill="#ffffff" stroke="#111111" stroke-width="2.2"/>
<rect x="275" y="191" width="24" height="24" rx="6" fill="#ffffff" stroke="#111111" stroke-width="2.2"/>
<rect x="304" y="191" width="24" height="24" rx="6" fill="#ffffff" stroke="#111111" stroke-width="2.2"/>
<rect x="188" y="220" width="24" height="24" rx="6" fill="#ffffff" stroke="#111111" stroke-width="2.2"/>
<rect x="217" y="220" width="24" height="24" rx="6" fill="#ffffff" stroke="#111111" stroke-width="2.2"/>
<rect x="246" y="220" width="24" height="24" rx="6" fill="#ffffff" stroke="#111111" stroke-width="2.2"/>
<rect x="275" y="220" width="24" height="24" rx="6" fill="#ffffff" stroke="#111111" stroke-width="2.2"/>
<rect x="304" y="220" width="24" height="24" rx="6" fill="#ffffff" stroke="#111111" stroke-width="2.2"/>
<text x="258.0" y="268" text-anchor="middle" font-family="Pretendard, 'NanumSquareRound', sans-serif" font-size="20" fill="#111111" font-weight="700">15개 남음  ← 최악!</text>
<rect x="400" y="30" width="300" height="58" rx="12" fill="#ffffff" stroke="#111111" stroke-width="2.8"/>
<text x="550.0" y="66.82" text-anchor="middle" font-family="Pretendard, 'NanumSquareRound', sans-serif" font-size="23" fill="#111111">㉯ “8 이하니?”</text>
<line x1="510" y1="92" x2="470.3" y2="140.0" stroke="#111111" stroke-width="2.6"/>
<polygon points="462,150 475.5,143.0 466.3,135.4" fill="#111111"/>
<text x="470.0" y="119.0" text-anchor="middle" font-family="Pretendard, 'NanumSquareRound', sans-serif" font-size="19" fill="#111111">예</text>
<line x1="590" y1="92" x2="629.7" y2="140.0" stroke="#111111" stroke-width="2.6"/>
<polygon points="638,150 633.7,135.4 624.5,143.0" fill="#111111"/>
<text x="636.0" y="119.0" text-anchor="middle" font-family="Pretendard, 'NanumSquareRound', sans-serif" font-size="19" fill="#111111">아니오</text>
<rect x="410" y="162" width="24" height="24" rx="6" fill="#ffffff" stroke="#111111" stroke-width="2.2"/>
<rect x="439" y="162" width="24" height="24" rx="6" fill="#ffffff" stroke="#111111" stroke-width="2.2"/>
<rect x="468" y="162" width="24" height="24" rx="6" fill="#ffffff" stroke="#111111" stroke-width="2.2"/>
<rect x="497" y="162" width="24" height="24" rx="6" fill="#ffffff" stroke="#111111" stroke-width="2.2"/>
<rect x="526" y="162" width="24" height="24" rx="6" fill="#ffffff" stroke="#111111" stroke-width="2.2"/>
<rect x="410" y="191" width="24" height="24" rx="6" fill="#ffffff" stroke="#111111" stroke-width="2.2"/>
<rect x="439" y="191" width="24" height="24" rx="6" fill="#ffffff" stroke="#111111" stroke-width="2.2"/>
<rect x="468" y="191" width="24" height="24" rx="6" fill="#ffffff" stroke="#111111" stroke-width="2.2"/>
<text x="480.0" y="268" text-anchor="middle" font-family="Pretendard, 'NanumSquareRound', sans-serif" font-size="20" fill="#111111" font-weight="700">8개 남음  ← 최악!</text>
<rect x="558" y="162" width="24" height="24" rx="6" fill="#ffffff" stroke="#111111" stroke-width="2.2"/>
<rect x="587" y="162" width="24" height="24" rx="6" fill="#ffffff" stroke="#111111" stroke-width="2.2"/>
<rect x="616" y="162" width="24" height="24" rx="6" fill="#ffffff" stroke="#111111" stroke-width="2.2"/>
<rect x="645" y="162" width="24" height="24" rx="6" fill="#ffffff" stroke="#111111" stroke-width="2.2"/>
<rect x="674" y="162" width="24" height="24" rx="6" fill="#ffffff" stroke="#111111" stroke-width="2.2"/>
<rect x="558" y="191" width="24" height="24" rx="6" fill="#ffffff" stroke="#111111" stroke-width="2.2"/>
<rect x="587" y="191" width="24" height="24" rx="6" fill="#ffffff" stroke="#111111" stroke-width="2.2"/>
<rect x="616" y="191" width="24" height="24" rx="6" fill="#ffffff" stroke="#111111" stroke-width="2.2"/>
<text x="628.0" y="268" text-anchor="middle" font-family="Pretendard, 'NanumSquareRound', sans-serif" font-size="20" fill="#111111" font-weight="700">8개 남음  ← 최악!</text>
<text x="365" y="330" text-anchor="middle" font-family="Pretendard, 'NanumSquareRound', sans-serif" font-size="21" fill="#111111"><tspan x="365" dy="0">질문의 실력 = 최악의 답이 남기는 후보 수 — ㉮는 15, ㉯는 8</tspan><tspan x="365" dy="26">반반에 가깝게 가르는 질문일수록 강하다</tspan></text>
</svg>
