<svg xmlns="http://www.w3.org/2000/svg" viewBox="0 0 740 380" width="740" height="380">
<rect x="46" y="52" width="56" height="56" rx="6" fill="#ffffff" stroke="#111111" stroke-width="2.2"/>
<text x="74.0" y="88.96000000000001" text-anchor="middle" font-family="Pretendard, 'NanumSquareRound', sans-serif" font-size="24" fill="#111111">1</text>
<rect x="111" y="52" width="56" height="56" rx="6" fill="#ffffff" stroke="#111111" stroke-width="2.2"/>
<text x="139.0" y="88.96000000000001" text-anchor="middle" font-family="Pretendard, 'NanumSquareRound', sans-serif" font-size="24" fill="#111111">2</text>
<rect x="176" y="52" width="56" height="56" rx="6" fill="#ffffff" stroke="#111111" stroke-width="2.2"/>
<text x="204.0" y="88.96000000000001" text-anchor="middle" font-family="Pretendard, 'NanumSquareRound', sans-serif" font-size="24" fill="#111111">3</text>
<rect x="241" y="52" width="56" height="56" rx="6" fill="#ffffff" stroke="#111111" stroke-width="2.2"/>
<text x="269.0" y="88.96000000000001" text-anchor="middle" font-family="Pretendard, 'NanumSquareRound', sans-serif" font-size="24" fill="#111111">4</text>
<rect x="46" y="117" width="56" height="56" rx="6" fill="#ffffff" stroke="#111111" stroke-width="2.2"/>
<text x="74.0" y="153.96" text-anchor="middle" font-family="Pretendard, 'NanumSquareRound', sans-serif" font-size="24" fill="#111111">5</text>
<rect x="111" y="117" width="56" height="56" rx="6" fill="#ffffff" stroke="#111111" stroke-width="2.2"/>
<text x="139.0" y="153.96" text-anchor="middle" font-family="Pretendard, 'NanumSquareRound', sans-serif" font-size="24" fill="#111111">6</text>
<rect x="176" y="117" width="56" height="56" rx="6" fill="#ffffff" stroke="#111111" stroke-width="2.2"/>
<text x="204.0" y="153.96" text-anchor="middle" font-family="Pretendard, 'NanumSquareRound', sans-serif" font-size="24" fill="#111111">7</text>
<rect x="241" y="117" width="56" height="56" rx="6" fill="#ffffff" stroke="#111111" stroke-width="2.2"/>
<text x="269.0" y="153.96" text-anchor="middle" font-family="Pretendard, 'NanumSquareRound', sans-serif" font-size="24" fill="#111111">8</text>
<rect x="46" y="182" width="56" height="56" rx="6" fill="#ffffff" stroke="#111111" stroke-width="2.2"/>
<text x="74.0" y="218.96" text-anchor="middle" font-family="Pretendard, 'NanumSquareRound', sans-serif" font-size="24" fill="#111111">9</text>
<rect x="111" y="182" width="56" height="56" rx="6" fill="#ffffff" stroke="#111111" stroke-width="2.2"/>
<text x="139.0" y="218.96" text-anchor="middle" font-family="Pretendard, 'NanumSquareRound', sans-serif" font-size="24" fill="#111111">10</text>
<rect x="176" y="182" width="56" height="56" rx="6" fill="#ffffff" stroke="#111111" stroke-width="2.2"/>
<text x="204.0" y="218.96" text-anchor="middle" font-family="Pretendard, 'NanumSquareRound', sans-serif" font-size="24" fill="#111111">11</text>
<rect x="241" y="182" width="56" height="56" rx="6" fill="#ffffff" stroke="#111111" stroke-width="2.2"/>
<text x="269.0" y="218.96" text-anchor="middle" font-family="Pretendard, 'NanumSquareRound', sans-serif" font-size="24" fill="#111111">12</text>
<rect x="46" y="247" width="56" height="56" rx="6" fill="#ffffff" stroke="#111111" stroke-width="2.2"/>
<text x="74.0" y="283.96" text-anchor="middle" font-family="Pretendard, 'NanumSquareRound', sans-serif" font-size="24" fill="#111111">13</text>
<rect x="111" y="247" width="56" height="56" rx="6" fill="#ffffff" stroke="#111111" stroke-width="2.2"/>
<text x="139.0" y="283.96" text-anchor="middle" font-family="Pretendard, 'NanumSquareRound', sans-serif" font-size="24" fill="#111111">14</text>
<rect x="176" y="247" width="56" height="56" rx="6" fill="#ffffff" stroke="#111111" stroke-width="2.2"/>
<text x="204.0" y="283.96" text-anchor="middle" font-family="Pretendard, 'NanumSquareRound', sans-serif" font-size="24" fill="#111111">15</text>
<rect x="241" y="247" width="56" height="56" rx="6" fill="#ffffff" stroke="#111111" stroke-width="2.2"/>
<text x="269.0" y="283.96" text-anchor="middle" font-family="Pretendard, 'NanumSquareRound', sans-serif" font-size="24" fill="#111111">16</text>
<text x="171.5" y="344" text-anchor="middle" font-family="Pretendard, 'NanumSquareRound', sans-serif" font-size="21" fill="#111111"><tspan x="171.5" dy="0">후보는 1~16, 열여섯 개</tspan></text>
<rect x="366" y="92" width="330" height="72" rx="12" fill="#ffffff" stroke="#111111" stroke-width="2.8"/>
<text x="531.0" y="136.84" text-anchor="middle" font-family="Pretendard, 'NanumSquareRound', sans-serif" font-size="26" fill="#111111">㉮  “정확히 3이니?”</text>
<rect x="366" y="196" width="330" height="72" rx="12" fill="#ffffff" stroke="#111111" stroke-width="2.8"/>
<text x="531.0" y="240.84" text-anchor="middle" font-family="Pretendard, 'NanumSquareRound', sans-serif" font-size="26" fill="#111111">㉯  “8 이하니?”</text>
<text x="531" y="344" text-anchor="middle" font-family="Pretendard, 'NanumSquareRound', sans-serif" font-size="21" fill="#111111"><tspan x="531" dy="0">어느 쪽이 더 좋은 질문일까?</tspan></text>
</svg>
